<?xml version="1.0" encoding="UTF-8" standalone="no"?>
<!-- Created with Inkscape (http://www.inkscape.org/) -->

<svg
   width="100mm"
   height="100mm"
   viewBox="0 0 100 100"
   version="1.1"
   id="svg5"
   inkscape:export-filename="icon.png"
   inkscape:export-xdpi="96"
   inkscape:export-ydpi="96"
   inkscape:version="1.2.2 (b0a8486541, 2022-12-01)"
   sodipodi:docname="logo.svg"
   xmlns:inkscape="http://www.inkscape.org/namespaces/inkscape"
   xmlns:sodipodi="http://sodipodi.sourceforge.net/DTD/sodipodi-0.dtd"
   xmlns="http://www.w3.org/2000/svg"
   xmlns:svg="http://www.w3.org/2000/svg">
  <sodipodi:namedview
     id="namedview7"
     pagecolor="#505050"
     bordercolor="#eeeeee"
     borderopacity="1"
     inkscape:showpageshadow="0"
     inkscape:pageopacity="0"
     inkscape:pagecheckerboard="0"
     inkscape:deskcolor="#505050"
     inkscape:document-units="mm"
     showgrid="false"
     inkscape:zoom="0.92604052"
     inkscape:cx="225.15214"
     inkscape:cy="194.91588"
     inkscape:window-width="1600"
     inkscape:window-height="880"
     inkscape:window-x="0"
     inkscape:window-y="20"
     inkscape:window-maximized="1"
     inkscape:current-layer="layer2" />
  <defs
     id="defs2" />
  <g
     inkscape:label="Layer 1"
     inkscape:groupmode="layer"
     id="layer1">
    <circle
       style="fill:#000000;fill-opacity:0.988489;stroke:#000000;stroke-width:1.465;stroke-opacity:0.0369079"
       id="path467"
       cx="50"
       cy="50"
       r="45.453918" />
  </g>
  <g
     inkscape:groupmode="layer"
     id="layer2"
     inkscape:label="Layer 2">
    <path
       style="display:none;fill:#ffffff;fill-opacity:0.988489;stroke:#000000;stroke-width:1.465;stroke-opacity:0.0369079"
       id="path413"
       d="M 33.01588,72.68483 C 32.098408,70.642067 31.14811,68.514701 30.701827,66.312722 30.369919,64.675073 30.264433,62.998636 30.11385,61.334491 29.611012,55.77749 29.731308,55.282343 29.705222,49.645935 c -0.02914,-2.025237 -0.04771,-4.050652 -0.08742,-6.075712 -0.09699,-4.946213 -0.297895,-7.627625 -0.05563,-12.570461 0.154576,-3.153818 0.616281,-7.122048 1.108569,-10.29 0.185154,-1.191492 0.433887,-2.372232 0.65083,-3.558348 0.208757,-0.827412 1.404286,-2.83278 0.626271,-2.482235 -3.599994,1.622026 -6.934509,3.929294 -9.820029,6.624605 -0.572776,0.53502 1.600946,0.06959 2.320329,0.380729 1.672725,0.723471 3.271256,1.637297 4.763739,2.683201 6.116568,4.286376 6.878218,5.741008 11.996787,11.309421 4.986874,6.385986 5.486511,6.604847 9.529434,13.339823 1.107199,1.844445 2.112227,3.749271 3.10424,5.658136 1.792882,3.449929 3.376414,7.061269 4.889108,10.64424 0.242469,0.621713 0.494025,1.239957 0.727406,1.865138 0.346043,0.659218 0.440658,1.400268 0.684342,2.092473 0.06883,0.19552 0.06734,0.669751 0.248952,0.569836 13.159494,-7.239828 14.219098,-3.045878 12.275744,-8.703971 -0.833462,-2.108959 -1.164781,-2.699959 -1.595824,-5.21103 -0.232582,-1.354923 -0.308716,-2.732201 -0.442452,-4.100422 -0.346046,-3.540345 -0.6116,-6.243505 -0.587746,-9.824911 0.01074,-1.612013 0.154541,-3.220391 0.231813,-4.830587 0.371792,-3.575204 0.367956,-4.130128 0.924475,-7.465495 0.138271,-0.828696 0.24262,-1.667748 0.473202,-2.475639 0.151849,-0.532036 1.152964,-1.78466 0.667163,-1.519861 -12.706367,6.925965 -14.880329,5.643736 -9.480218,7.694762 0.845307,0.703808 1.77333,1.318739 2.53592,2.11142 3.290785,3.420631 5.175905,6.187244 7.156732,10.658134 1.028607,2.321655 1.754626,4.769527 2.47846,7.203492 1.710645,5.752222 1.880468,7.721084 2.859217,13.460365 0.186611,1.756804 0.373219,3.513609 0.559827,5.27041 0,0 7.319594,-3.968631 7.319594,-3.968631 v 0 C 85.102601,66.634997 84.437142,65.135175 83.771684,63.635355 81.301007,57.232987 81.469607,57.965996 79.305676,51.02411 78.541736,48.573399 77.728624,46.133943 77.11229,43.642013 74.625739,33.58854 76.473404,39.028577 74.673745,30.096569 c -0.226663,-1.12497 -0.624668,-2.208513 -0.937001,-3.31277 -2.700726,-6.100533 -0.730102,-3.393541 -13.293347,4.878767 -0.320276,0.210887 0.370811,0.676375 0.489942,1.040874 0.369935,1.131876 0.869942,3.771669 1.026134,4.773194 0.190984,1.22464 0.321315,2.457971 0.481972,3.686958 0.0995,1.520288 0.264748,3.037697 0.298509,4.560864 0.07989,3.604609 -0.15851,6.746621 -0.405797,10.336188 -0.103386,1.500749 -0.152247,3.007514 -0.339312,4.500145 -0.390203,3.113521 -0.708576,3.952758 -1.46912,6.706909 -2.194021,5.423345 -0.678977,1.026951 11.929666,-5.604253 0.1514,-0.07963 -0.193969,0.357677 -0.365003,0.360738 -0.490461,0.0088 -1.825369,-1.051171 -1.98873,-1.173236 C 69.537825,60.429645 68.989474,59.988011 68.43338,59.556544 65.940982,57.449651 65.84044,57.403897 63.194865,54.969238 61.91007,53.786868 60.614058,52.615338 59.372543,51.3876 53.882265,45.958236 48.831657,40.100393 44.467427,33.720016 c -5.272998,-7.671391 -4.36649,-5.611953 -8.063603,-13.722047 -0.7029,-1.5419 -1.18855,-3.180107 -1.939863,-4.699006 -0.415441,-0.83988 -0.66593,-2.670008 -1.545816,-2.347842 -4.328501,1.584859 -8.211286,4.322244 -11.788005,7.229954 -0.50371,0.409493 0.417514,1.229354 0.626271,1.844031 0.216943,0.96504 0.471238,1.922436 0.650829,2.89512 0.5252,2.844533 0.962052,6.320203 1.10857,9.160312 0.323236,6.265595 -0.183524,12.526094 -0.14305,18.791949 -0.0274,5.947121 0.08661,6.127226 -0.408628,12.104967 -0.15435,1.863056 -0.278288,3.7338 -0.587977,5.577409 -0.498175,2.96568 -1.449239,5.856634 -2.314054,8.730247 0,0 12.953779,-6.60028 12.953779,-6.60028 z" />
    <path
       style="display:none;fill:#ffffff;fill-opacity:0.988489;stroke:#000000;stroke-width:1.465;stroke-opacity:0.0369079"
       id="path536"
       d="M 31.62445,74.894095 C 30.930379,73.603966 29.416877,70.807574 29.222361,70.225848 27.72564,65.749704 27.384314,61.220312 27.057736,56.54758 26.598755,49.980418 26.731243,48.576065 26.784982,42.138224 c 0.03378,-2.069748 0.05407,-4.139761 0.101341,-6.209242 0.04195,-1.836415 0.07373,-3.673612 0.16633,-5.50817 0.217781,-4.314515 0.74349,-8.605712 1.368177,-12.877311 0.530206,-3.551314 -0.05203,0.289209 0.387069,-2.466292 0.108463,-0.680637 0.233016,-1.175001 -0.0024,-1.825948 -0.220509,-0.305247 -0.329425,-1.093244 -0.661527,-0.915741 -4.379816,2.340921 -8.521416,5.120658 -12.574622,7.990191 -0.203187,0.143849 0.207459,0.464256 0.382004,0.641771 0.27208,0.276709 0.613882,0.475545 0.933305,0.695918 0.984202,0.679013 2.032625,1.280011 3.055516,1.893986 2.803807,1.835622 2.515863,1.591101 5.392741,3.732294 1.177254,0.876202 2.377875,1.724515 3.503806,2.665757 1.164019,0.973079 2.253774,2.032026 3.359044,3.071349 2.81128,2.64354 4.694039,4.56647 7.454051,7.321129 4.501176,4.755272 8.798137,9.763056 12.228348,15.36042 0.31477,0.513636 0.598721,1.04553 0.898081,1.568297 0.408559,0.948782 1.034373,1.864336 1.231611,2.898155 0.05609,0.294005 0.03716,0.389181 0.03046,0.693002 -0.668872,5.713042 0.815006,1.303817 13.157258,-5.931918 0.240432,-0.140954 -0.20796,-0.518671 -0.279228,-0.788107 -0.206741,-0.781576 -0.369224,-1.574194 -0.553837,-2.36129 -0.0807,-1.327867 -0.251328,-2.653315 -0.242094,-3.983598 0.03326,-4.791601 0.965589,-9.498745 1.961698,-14.162651 0.567722,-2.658144 1.181841,-5.306181 1.762128,-7.961611 0.618926,-2.678285 1.355733,-5.32702 2.155899,-7.956139 0.029,-0.09529 0.606126,-2.151912 0.890357,-2.419228 0.161909,-0.152272 0.441037,-0.0556 0.661556,-0.0834 -3.849454,2.378148 -8.129749,4.170163 -11.548364,7.134444 -0.601514,0.521574 1.484077,0.593591 2.170298,0.99728 0.845476,0.497376 1.632781,1.090847 2.405782,1.694735 1.785575,1.394932 3.024235,2.600564 4.556644,4.253427 0.606578,0.654253 1.171225,1.346168 1.756838,2.019252 1.914277,2.382414 3.675854,4.881015 5.546093,7.297285 0.707959,1.049322 0.376446,0.540306 0.998365,1.524556 0,0 12.139094,-7.248284 12.139094,-7.248284 v 0 C 90.74175,32.041499 91.171343,32.498828 90.294713,31.514308 89.125537,30.154892 87.88108,28.861482 86.534007,27.675003 86.058839,27.256483 85.560936,26.8645 85.076568,26.456662 84.482219,25.956214 83.890775,25.452326 83.297875,24.950158 81.62314,23.456806 80.601343,22.587012 78.992668,20.972993 c -0.743614,-0.746084 -1.456812,-1.521975 -2.174454,-2.293071 -0.637244,-0.684707 -1.29648,-1.351198 -1.890012,-2.074124 -0.473921,-0.577238 -0.589129,-2.02587 -1.30702,-1.819872 -4.733115,1.358158 -8.981247,4.040431 -13.471869,6.060646 0.307824,3.227641 0.05289,6.480766 -0.284393,9.695697 -0.352059,2.544752 -0.719859,5.087345 -1.061447,7.633525 -0.196419,1.464107 -0.36607,2.931761 -0.567552,4.395182 -0.243047,1.765303 -1.177941,8.202954 -1.528165,9.900197 -0.325768,1.57873 -0.789916,3.125711 -1.184873,4.688568 -0.391353,1.079259 -0.76695,2.164358 -1.174054,3.237772 -0.138292,0.364636 -0.820584,1.227416 -0.461619,1.075013 13.971447,-5.931739 14.011479,-1.782665 13.036561,-7.366794 -0.07017,-0.311055 -0.169773,-0.817218 -0.301334,-1.097333 -0.226748,-0.482777 -0.421296,-0.586946 -0.8225,-0.932756 C 65.555468,51.864905 65.308458,51.657104 65.062705,51.447832 64.709653,51.142211 64.356604,50.836591 64.003552,50.530971 58.37779,45.72074 52.599436,41.039655 47.675664,35.482233 c -2.392232,-2.90898 -4.139305,-5.126334 -6.679215,-7.869565 -1.022035,-1.103853 -2.1057,-2.149004 -3.158551,-3.223506 -0.933471,-1.048869 -1.846736,-2.116076 -2.800413,-3.146606 -3.993481,-4.3153 -0.815886,-0.525943 -4.096002,-4.573959 -0.05035,-0.05806 -1.727255,-1.954734 -1.951754,-2.320376 -0.100283,-0.163331 -0.180692,-0.358968 -0.167151,-0.550149 0.0059,-0.0836 0.265338,0.113516 0.194866,0.158877 -4.126771,2.656276 -8.153817,5.502578 -12.508072,7.766756 -0.331902,0.172587 -0.384416,-0.641877 -0.576625,-0.962816 -0.0027,-0.04789 -0.04292,-0.110764 -0.008,-0.143678 0.05006,-0.04722 0.164485,0.206249 0.213644,0.340667 0.301465,0.824297 0.417777,1.704858 0.601646,2.557773 0.760999,3.721478 1.44537,7.461707 1.868658,11.239087 0.193179,1.723911 0.323074,3.454328 0.482115,5.181724 0.180653,1.962131 0.357977,3.924567 0.536965,5.886852 0.626496,6.54104 0.791397,7.2166 1.003745,14.042006 0.172319,5.538774 0.27626,9.611064 -0.54701,15.096514 -0.340826,2.270924 -1.006729,4.460139 -1.649355,6.652598 0,0 13.189405,-6.720337 13.189405,-6.720337 z" />
    <path
       style="fill:#ffffff;fill-opacity:0.988489;stroke:#000000;stroke-width:1.465;stroke-opacity:0.0369079"
       id="path538"
       d="m 25.963832,67.909632 c 0.114516,-0.143991 0.232237,-0.285488 0.343547,-0.431972 1.069455,-1.407414 0.589824,-0.899154 2.071699,-2.489628 1.349629,-1.448536 2.372048,-2.321415 3.539871,-3.951153 0.540981,-0.754951 0.968841,-1.584865 1.453259,-2.377297 1.12554,-2.495555 2.170927,-5.037775 2.659919,-7.746127 0.148122,-0.820393 0.216924,-1.653503 0.295728,-2.483429 0.07024,-0.739749 0.153331,-1.481016 0.151262,-2.224088 -0.0019,-0.712776 -0.108929,-1.421389 -0.163391,-2.132083 -0.436366,-2.251105 -1.169418,-4.424879 -1.86318,-6.604715 -0.138723,-0.435882 -1.015746,-3.233555 -1.204301,-3.761491 -0.203824,-0.57068 -0.441174,-1.128824 -0.661763,-1.693235 -0.202819,-0.542237 -0.404653,-1.084842 -0.608462,-1.626706 -0.630957,-1.67753 -0.435231,-1.10961 -0.976312,-2.658594 -0.259845,-0.743871 -0.513168,-1.470615 -0.838206,-2.18808 0.380733,0.492308 -0.450334,-0.676949 -0.26657,-0.573592 0.134091,0.07542 0.443706,0.249849 0.316315,0.336105 -4.026689,2.726398 -8.230064,5.182377 -12.329635,7.797902 -0.140634,0.08972 0.28889,-0.175898 0.450106,-0.218768 0.217198,-0.05776 0.446399,-0.05266 0.669598,-0.07898 1.97656,-0.192021 3.94229,0.02117 5.776513,0.84976 1.489079,0.672684 4.162293,2.552694 5.395998,3.376136 0.961985,0.796417 1.929767,1.585886 2.885961,2.389248 1.027663,0.86341 2.03939,1.74565 3.065462,2.610948 2.953639,2.490825 5.972675,4.900676 8.768141,7.572648 0.668123,0.638611 1.304348,1.30978 1.956522,1.964671 1.089975,1.168003 2.160604,2.364999 3.070942,3.681521 0.299151,0.432626 0.546137,0.848405 0.699516,1.347933 0.03084,0.09437 0.0056,0.331142 0.09252,0.283102 15.978111,-8.835345 13.824281,-2.81482 12.051004,-10.52484 -0.268229,-1.166227 -0.550905,-2.334175 -0.694642,-3.522188 -0.17248,-1.425549 -0.167881,-2.866978 -0.25182,-4.300466 0.0182,-5.773068 0.517837,-11.541202 1.40558,-17.24363 0.07661,-0.331145 0.09299,-0.682305 0.229825,-0.993436 0.08336,-0.189548 0.274452,-0.31014 0.411681,-0.46521 -3.685415,2.409522 -7.807229,4.256702 -11.056244,7.228567 -0.615151,0.562676 1.649336,0.333375 2.405637,0.684119 2.420516,1.12254 4.588687,3.097287 6.625537,4.718744 3.870745,3.679232 7.091492,7.938164 9.927177,12.447312 0.87495,1.391301 1.657255,2.838762 2.491779,4.25468 3.31143,5.618421 1.496008,2.330958 4.43969,7.921064 0.488297,1.170776 0.976593,2.341552 1.46489,3.512327 0,0 9.626605,-5.502965 9.626605,-5.502965 v 0 c -0.682115,-1.073671 -1.364232,-2.147342 -2.046346,-3.221011 -0.769138,-1.269722 -1.506479,-2.559254 -2.30741,-3.809161 -1.384464,-2.160545 -4.030583,-5.901603 -5.481637,-7.968099 -2.076686,-2.957478 -4.1192,-5.939388 -6.237603,-8.867132 -1.007499,-1.392418 -2.055294,-2.755231 -3.08294,-4.132847 -3.376213,-4.633247 -1.625759,-2.4773 -4.873408,-6.146567 -0.544809,-0.615539 -0.852165,-2.112261 -1.63108,-1.849581 -11.772143,3.970034 -14.243862,2.370063 -13.051501,8.380254 0.984488,5.200629 1.421238,10.499611 1.4396,15.790621 -0.269838,4.793933 -0.06648,4.175959 -0.969886,8.786964 -0.173569,0.885899 -0.394837,1.762397 -0.631343,2.633609 -0.101574,0.374163 -0.735039,1.258557 -0.381844,1.098651 9.52482,-4.31224 16.73302,-9.597443 12.687551,-6.63633 C 62.98594,48.9435 62.638484,48.630231 62.398126,48.456857 61.897627,48.095844 61.055313,47.608283 60.564799,47.312939 58.405058,46.012528 59.524502,46.695542 57.055514,45.160072 55.239864,43.988307 53.323802,42.787657 51.590344,41.503824 49.303333,39.810017 47.46749,38.238287 45.38233,36.298626 44.414638,35.398458 43.493973,34.44898 42.542459,33.531725 41.651335,32.672689 40.750484,31.8238 39.854497,30.969836 c -2.354858,-2.398027 -2.091905,-2.257224 -4.480912,-4.255291 -0.917123,-0.767043 -1.882878,-1.63959 -3.031308,-2.078624 -0.08444,-0.03228 -1.536467,-0.252353 -1.720035,-0.280689 -0.187214,-0.02475 -0.378589,-0.02785 -0.561644,-0.07425 -0.152085,-0.03855 -0.300212,-0.257954 -0.43552,-0.178528 -4.313877,2.532267 -15.421338,4.440686 -12.411106,8.435735 0.02604,0.03455 0.482499,0.336135 0.48725,0.339326 1.610932,1.482923 2.551466,3.55606 3.423159,5.521901 0.219276,0.56954 0.416675,1.147993 0.657827,1.708621 0.783234,1.820855 0.845921,1.508879 1.562793,3.457821 0.257681,0.700551 0.464278,1.419143 0.672341,2.136 0.68503,2.360178 0.530483,1.879817 0.880516,4.295738 0.07121,1.012245 0.237744,2.982904 0.198419,4.002593 -0.09104,2.360707 -0.706505,4.898689 -1.625406,7.071722 -0.359616,0.850424 -0.826074,1.651598 -1.239111,2.477397 -0.515013,0.745061 -0.984224,1.523958 -1.54504,2.235181 -2.056142,2.607591 -4.876897,4.87503 -7.388472,7.046233 -0.319235,0.275971 -0.644101,0.545362 -0.966151,0.818041 0,0 13.631735,-5.73913 13.631735,-5.739131 z" />
  </g>
</svg>
