<svg version="1.1" xmlns="http://www.w3.org/2000/svg" viewBox="0 0 258.2218701127481 269.4663205887891" width="258.2218701127481" height="269.4663205887891">
  <g stroke-linecap="round" transform="translate(175.2218701127481 10) rotate(0 36.5 36.5)"><path d="M17.24 4.38 C17.24 4.38, 17.24 4.38, 17.24 4.38 M17.24 4.38 C17.24 4.38, 17.24 4.38, 17.24 4.38 M5.31 26.06 C12.1 15.04, 16.72 11.12, 23.92 4.04 M4.62 23.46 C9.88 19.06, 15 12.79, 23.94 3.31 M2.89 32.38 C10.36 22.23, 18.32 14.11, 29.06 4.18 M4.47 31.89 C8.71 26.55, 14.61 20.64, 29.95 3.71 M4.42 38.35 C15.33 24.42, 26.59 13.07, 37.41 1.37 M2.23 38.46 C14.89 25.1, 28.95 10.07, 35.71 1.23 M1.2 45.27 C14.77 31.78, 26.33 21.34, 41.27 0.55 M0.87 47.54 C12.21 34.4, 22.6 23.18, 41.12 1.56 M3.82 49.17 C19.97 34.51, 34.36 17.2, 45.44 4.38 M4.06 49.47 C14.96 36.55, 27.79 22.66, 44.21 3.17 M5.51 54.64 C16.02 42.74, 22.95 31.89, 49.71 6.26 M5.66 54.19 C18.33 40.68, 29.81 27.13, 49.82 4 M9.77 57.68 C22.68 43.71, 33.49 27.3, 51.4 4.81 M9.71 55.82 C19.67 44.36, 29.52 33.13, 52.45 5.77 M9.65 59.07 C25.34 41.84, 43.6 23.6, 57.84 6.67 M11.83 59.79 C27.18 40.09, 43.62 21.83, 56.96 8.47 M13.53 62.54 C23.83 48.03, 38.57 34, 58.22 10.93 M13.37 64.76 C23.54 53.66, 32 41.71, 60.65 10.56 M15.59 67.81 C28.71 52.2, 40.08 38.9, 61.43 11.43 M16.08 65.38 C30.02 51.23, 42.88 37.1, 63.39 13.06 M19.1 68.35 C33.89 53.43, 45.77 40.27, 65.84 18.5 M21.64 67.84 C33.64 53.75, 44.86 38.06, 63.63 16.96 M22.85 68.36 C35.29 58.26, 45.9 45.75, 68.5 21.93 M24.34 68.59 C40.28 51.68, 55.71 32.59, 65.84 20 M30.24 69.27 C36.45 58.64, 43.88 49.85, 69 23.52 M28.46 70.55 C41.85 55.96, 54.94 40.24, 68.65 24.95 M34.59 73.25 C43.81 59.79, 51.28 50.87, 69.95 28.29 M31.79 72.45 C40.14 62.55, 49.19 54.06, 71.53 28.6 M37.54 76.21 C50.38 56.53, 66.41 41.05, 74.09 31 M36.29 75.5 C50.86 58.16, 64.18 41.38, 74.23 29.95 M42.84 73.48 C53.93 59.19, 64.34 45.88, 73.63 36.16 M42.11 72.87 C54.56 59.58, 65.71 47.6, 74.28 38.09 M49.06 73.23 C57.49 62.05, 62.19 55.37, 71.16 42.99 M48.61 70.82 C57.32 61.91, 66.12 52.49, 72.21 42.77" stroke="#868e96" stroke-width="0.5" fill="none"></path><path d="M41.11 0.86 C47.66 1.08, 55.18 5.1, 60.2 9.74 C65.22 14.38, 69.52 21.7, 71.25 28.71 C72.98 35.72, 73.23 45.35, 70.58 51.81 C67.93 58.26, 61.61 64.1, 55.35 67.46 C49.08 70.83, 40.09 72.52, 32.98 71.99 C25.87 71.46, 18.18 68.82, 12.69 64.3 C7.2 59.78, 1.54 51.81, 0.04 44.84 C-1.46 37.88, 0.79 29.32, 3.69 22.53 C6.59 15.75, 10.27 7.81, 17.45 4.14 C24.63 0.47, 40.98 0.31, 46.79 0.51 C52.61 0.71, 52.7 4.49, 52.35 5.32 M21.78 4.04 C27.74 1.06, 36.3 -0.53, 43.4 0.87 C50.5 2.27, 59.45 7.12, 64.38 12.45 C69.3 17.77, 72.21 25.67, 72.95 32.81 C73.69 39.94, 72.17 49.23, 68.81 55.26 C65.45 61.28, 59.33 66.37, 52.79 68.97 C46.26 71.58, 36.94 72.13, 29.6 70.88 C22.25 69.62, 13.39 66.31, 8.71 61.44 C4.02 56.57, 2.32 49.07, 1.49 41.68 C0.66 34.29, 0.37 23.49, 3.74 17.11 C7.1 10.74, 18.81 5.46, 21.66 3.42 C24.51 1.38, 20.59 4.44, 20.85 4.85" stroke="#1e1e1e" stroke-width="1" fill="none"></path></g><g stroke-linecap="round" transform="translate(68.86579550989143 -7.9120219163053775) rotate(75.84226804978798 29.55497915075199 79)"><path d="M15.85 8.48 C15.85 8.48, 15.85 8.48, 15.85 8.48 M15.85 8.48 C15.85 8.48, 15.85 8.48, 15.85 8.48 M9.87 21.15 C16.05 13.47, 21.17 6.34, 26.95 4.73 M12.25 18.96 C14.65 14.14, 20.04 10.91, 25.85 3.03 M5.11 30.52 C11.97 24.82, 18.33 17.02, 34.17 1.79 M7.29 30.2 C14.59 23.63, 20.22 15.98, 32.89 1.65 M11 34.16 C16.79 26.27, 27.49 16.53, 35.86 4.92 M8.38 34.4 C18.15 22.43, 28.3 12.27, 35.64 3.69 M6.99 41.39 C18.69 32.45, 26.19 19.74, 37.64 6.72 M6.71 41.55 C21.08 27.96, 33.25 13.28, 39.47 6.84 M6.98 50.45 C17.39 40.35, 26.8 28.17, 40.14 7.36 M7.52 50.38 C14.33 40.82, 23.07 31.12, 42.01 8.42 M3.22 55.87 C14.39 44.04, 24.97 34.8, 43.67 12.75 M5.6 58.05 C13.78 46.07, 22.88 35.05, 45.61 11.88 M1.03 68.97 C15.22 48.36, 31.17 32.18, 45.82 13.59 M-0.1 68.81 C18.07 50.48, 34.08 30.41, 46.68 16.03 M2.16 73 C20.66 54.87, 35.63 34.96, 47.55 18.57 M0.52 73.49 C10.48 62.89, 20.97 51.25, 49.5 20.54 M0.61 78.58 C16.05 65.58, 28.55 49.69, 50.71 25.41 M0.36 81.11 C19.19 60.53, 36.65 39.16, 49.55 23.2 M3.19 84.29 C13.92 71.45, 29.08 56.79, 52.92 29.84 M1.42 85.78 C18.54 65.02, 37.99 43.76, 52.04 27.19 M1.81 93.75 C12.41 78.04, 23.34 63.56, 53.01 32.11 M0.78 91.97 C15.45 76.24, 29.62 60.24, 53.24 31.76 M0.26 100.06 C23.41 75.95, 41.43 50.1, 56.54 35.49 M1.21 97.27 C18.64 78.97, 33.96 61.45, 55.63 37.07 M3.06 105.64 C20.94 83.14, 36.34 63.81, 56.68 41.5 M1.71 104.39 C18.8 85.27, 34.72 64.95, 56.57 41.64 M4.32 108.87 C14.17 95.57, 24.48 81.69, 56.96 46.94 M2.16 108.15 C15.76 94.57, 28 79.64, 56.83 47.6 M3.19 112.93 C26.43 91.1, 43.15 65.75, 57.46 49.62 M4.49 112.48 C17.58 96.2, 32.56 80.25, 58.48 50.67 M4.76 117.01 C15.42 105.85, 29.31 91.28, 56.39 55.37 M5.36 117.97 C27.03 95.44, 45.58 72.95, 58.25 57.5 M4.82 123.06 C25.74 100.95, 44.62 82.35, 60.81 62.53 M6.64 122.78 C25.05 101.76, 42.72 81.85, 59.98 62.29 M9.4 128.54 C23.07 110.82, 37.64 91.96, 58.87 66.46 M8.71 125.7 C22.1 109.57, 37.76 92.24, 60.67 67.65 M10.28 131.19 C22.97 117.86, 32.22 105.48, 63.26 71.26 M9.75 131.15 C24.47 113.6, 39.61 97.08, 61.58 72.55 M9.81 135.77 C28.45 119.51, 43.7 100.58, 60.14 78.11 M10.24 138.16 C27.45 116.14, 45.95 95.76, 60.99 78.83 M11.68 139.01 C23.31 125.51, 36.97 113.43, 61.17 83.65 M11.57 139.6 C26.66 123.94, 41 107.04, 59.95 83.92 M15.23 144.47 C24.88 130.83, 38.38 117.39, 61.09 91.54 M14.01 143.26 C29.01 128.18, 42.52 111.36, 59.61 92.66 M14.84 146.18 C25.84 136.43, 32.73 127.29, 59.89 97.73 M15.93 147.76 C30.84 132.4, 42.84 115.99, 59.14 98.72 M18.11 150.46 C35.53 134.29, 49.53 114.65, 60.28 105.4 M19.66 150.6 C32.16 135.57, 43.58 121.74, 58.97 103.89 M19.37 154.89 C35.33 139.21, 46.55 121.78, 61.19 111.02 M20.82 155.39 C30.85 142.59, 42.69 131.04, 60.01 110.35 M26.51 156.78 C33.61 145.26, 44.75 134.54, 58.73 120.62 M26.84 154.59 C35.34 143.66, 45.79 133.75, 58.37 119.17 M29.22 158.28 C38.7 146.79, 46.39 137.57, 55.42 130.15 M30.97 156.83 C36.68 148.38, 43.44 139.9, 54.35 128.96 M35.02 156.73 C38.85 151.48, 44.79 147.76, 49.97 142.16 M36.08 157.57 C40.38 151.1, 45.57 144.27, 49.95 140.77" stroke="#868e96" stroke-width="0.5" fill="none"></path><path d="M15.88 8.44 C19.64 2.13, 25.96 0.05, 30.62 0.28 C35.29 0.52, 39.87 3.95, 43.87 9.85 C47.88 15.75, 51.96 25.61, 54.63 35.7 C57.3 45.78, 59.43 58.39, 59.89 70.36 C60.35 82.32, 59.35 95.97, 57.42 107.48 C55.48 118.99, 51.68 131.17, 48.27 139.41 C44.86 147.65, 41.47 154.39, 36.96 156.92 C32.44 159.44, 25.76 157.82, 21.2 154.56 C16.64 151.29, 12.95 145.36, 9.58 137.32 C6.22 129.28, 2.56 117.94, 1.03 106.32 C-0.5 94.71, -0.49 79.96, 0.39 67.62 C1.28 55.29, 3.57 42.51, 6.32 32.32 C9.08 22.12, 14.6 10.74, 16.91 6.44 C19.22 2.14, 19.68 5.31, 20.18 6.53 M27.77 1.76 C32.01 -0.41, 36.22 1.46, 40.16 5.92 C44.09 10.37, 48.14 19.05, 51.38 28.5 C54.63 37.94, 58.63 50.97, 59.62 62.58 C60.6 74.18, 58.55 86.36, 57.28 98.14 C56.02 109.92, 55.02 124.2, 52.02 133.24 C49.01 142.27, 43.67 148.14, 39.27 152.36 C34.86 156.57, 30.03 160.28, 25.59 158.52 C21.15 156.75, 16.56 148.89, 12.63 141.75 C8.7 134.61, 4.06 126.29, 2.01 115.7 C-0.05 105.11, 0.11 90.79, 0.29 78.22 C0.48 65.65, 1.05 51.25, 3.1 40.28 C5.14 29.3, 8.88 19.09, 12.55 12.38 C16.23 5.67, 22.76 1.76, 25.15 0.04 C27.53 -1.69, 26.71 0.53, 26.87 2.01" stroke="#1e1e1e" stroke-width="1" fill="none"></path></g><g stroke-linecap="round" transform="translate(25.396574565193305 86.62375680920633) rotate(340.0764153724336 17 48)"><path d="M7.38 9.06 C7.38 9.06, 7.38 9.06, 7.38 9.06 M7.38 9.06 C7.38 9.06, 7.38 9.06, 7.38 9.06 M3.19 18.41 C7.26 13.44, 13.59 7.61, 19.86 3.63 M5.48 17.37 C10.12 11.98, 16.3 5.08, 19.82 1.53 M3.33 26.29 C11.2 19.76, 17.41 10.71, 22.65 2.58 M4.38 24.77 C8.67 19.22, 12.35 14.37, 21.78 4.01 M3.96 32.55 C11.89 22.83, 22.29 12.56, 24.16 8.46 M1.28 33.64 C11.3 22.78, 19.36 12.45, 24.07 7.81 M0.04 39.88 C9.55 29.11, 19.54 22.2, 27.99 11.36 M1.45 40.64 C8.45 33.42, 13.97 25, 27.31 10.66 M2.78 44.75 C9.02 35.34, 16.63 26.46, 30.1 14.64 M2.73 45.32 C10 34.88, 19.15 26.31, 28.56 14.9 M2.47 50.4 C8.52 45.93, 13.06 37.99, 31.7 18.18 M2.02 51.35 C11.32 39.68, 22.4 28.91, 29.87 19 M1.25 57.58 C8.13 47.17, 17.64 38.83, 29.42 24.1 M1.88 57.5 C10.83 46.98, 20.91 36.91, 30.21 23.54 M1.39 65.05 C8.75 54.08, 17.88 47.48, 32.07 28.07 M2.5 64.43 C13.33 50.97, 23.7 38.83, 32.05 28.72 M5.32 68.58 C9.89 59.25, 20.16 50.62, 32.27 32 M3.52 67.87 C13.28 57.18, 22.98 44.55, 34.66 33.36 M3.95 73.98 C12.35 66.12, 17.94 56.3, 35.16 38.84 M4.06 73.98 C15.75 60.32, 24.97 48.55, 34.62 39.9 M6.71 77.8 C15.16 67.62, 27.66 52.79, 34.63 44.53 M6.57 78.25 C15.53 67.63, 24.19 56.1, 33.78 44.63 M7.12 82.38 C13.54 74.58, 20.8 65.38, 36.1 51.04 M6.07 82.79 C16.63 72.76, 24.8 61.69, 33.79 50.97 M9.58 88.81 C17.98 77.48, 26.81 65, 34.13 57.35 M8.75 87.59 C15.49 80.25, 20.87 72.19, 33.47 56.71 M10.21 88.17 C19.4 79.62, 25.42 72.95, 34.45 64.72 M12.57 89.97 C17.1 84.51, 21.31 78.79, 34.57 63.5 M15.76 91.12 C18.19 90.33, 20.1 84.23, 30.92 72.41 M13.87 92.43 C20.31 85.91, 27.68 78.24, 32.5 72.88 M14.34 96.29 C19 93.08, 24.98 89.28, 29.56 80.7 M15.85 97.28 C21.06 92.24, 24.64 88.22, 30.12 81.46" stroke="#868e96" stroke-width="0.5" fill="none"></path><path d="M17.17 0.21 C20.43 -0.4, 24.33 4.59, 27.06 10.06 C29.8 15.53, 32.45 24.07, 33.57 33.02 C34.7 41.96, 34.79 54.72, 33.82 63.73 C32.86 72.73, 30.67 81.65, 27.78 87.05 C24.9 92.46, 19.89 96.38, 16.52 96.17 C13.14 95.96, 10.03 91.28, 7.54 85.81 C5.06 80.35, 2.62 72.12, 1.61 63.36 C0.6 54.59, 0.54 42.26, 1.5 33.21 C2.46 24.16, 4.02 14.4, 7.38 9.06 C10.75 3.72, 18.61 1.32, 21.69 1.16 C24.77 1.01, 26.03 7.15, 25.86 8.13 M14.57 1.75 C17.7 0.11, 20.79 2.36, 23.73 6.71 C26.68 11.05, 30.38 19.65, 32.24 27.81 C34.11 35.97, 35.28 46.78, 34.93 55.65 C34.59 64.52, 32.7 74.2, 30.16 81.03 C27.62 87.87, 22.95 95.28, 19.68 96.66 C16.42 98.04, 13.61 93.89, 10.58 89.31 C7.54 84.74, 3.46 77.49, 1.48 69.21 C-0.49 60.93, -2 48.62, -1.27 39.63 C-0.53 30.63, 3.32 21.81, 5.89 15.23 C8.45 8.65, 12.89 2.42, 14.13 0.15 C15.36 -2.12, 13.15 0.7, 13.28 1.63" stroke="#1e1e1e" stroke-width="1" fill="none"></path></g><g stroke-linecap="round" transform="translate(21.155816450602117 169.03696754163548) rotate(29.999999999999964 16.99999999999997 48)"><path d="M10.62 3.93 C10.62 3.93, 10.62 3.93, 10.62 3.93 M10.62 3.93 C10.62 3.93, 10.62 3.93, 10.62 3.93 M5.49 14.8 C7.73 14.03, 10.51 8.76, 15.63 3.42 M4.86 16.1 C10.07 10.67, 13.59 6.94, 16.85 2.36 M5.79 23.17 C12.96 13.93, 18.19 8.8, 21.66 4.28 M5.79 23.5 C10.76 14.81, 17.63 8.22, 22.73 3.91 M3.81 28.7 C12.35 23, 16.25 15.48, 23.32 7.24 M4.26 30.45 C12.41 20.41, 19.66 11.35, 23.42 6.16 M2.58 36.67 C11.57 26.93, 19.16 19.31, 26.55 10.67 M2.99 37.73 C12.34 26.8, 20.66 16.7, 26.48 10.65 M3.95 44.02 C11.56 33.99, 18.05 25.81, 28.83 12.13 M2.73 45.14 C12.49 32.83, 21.52 20.6, 28.19 13.53 M-0.88 52.69 C7.78 41.39, 18.39 32.31, 31.51 15.67 M0.92 52.76 C8.47 43.28, 15.73 35.2, 30.29 16.43 M-0.26 57.82 C14.51 42.48, 24.16 29.18, 33.56 21.54 M1.05 56.9 C14.42 43.48, 26.72 29.53, 34.02 19.98 M1.92 61.34 C9.81 56.22, 17.02 47.98, 33.58 25.54 M2.92 63.41 C8.85 55.87, 15.7 48.65, 34.34 24.88 M3.88 68.62 C13.33 55.94, 21.59 45.34, 32.74 30.14 M2.55 68.13 C12.37 56.07, 21.88 45.25, 35.12 30.77 M5.23 74.29 C12.97 61.62, 20.12 51.69, 36.1 36.56 M3.69 72.42 C9.31 65.85, 17.23 58.38, 34.74 36.06 M2.05 78.45 C14.2 66.44, 26.17 53.59, 31.77 45.54 M3.19 79.13 C11.38 70.5, 16.69 63.26, 33.46 44.45 M4.78 80.91 C15.91 72.59, 21.31 62.58, 32.63 50.49 M7.05 82.61 C12.63 74.77, 20.34 65.78, 33.42 51.86 M6.74 85.53 C13.31 80.7, 21.45 72.37, 32.3 59.12 M7.33 86.76 C15.17 80.43, 21.18 71.54, 32.88 57.74 M11.24 87.84 C16.47 85.95, 21.5 80.26, 32.23 65.07 M9.38 90.44 C19.04 81.35, 25.1 70.68, 31.48 64.53 M11.46 92.15 C17.32 84.22, 26.92 78.75, 30.9 71.51 M12.03 94.32 C16.62 88.02, 24.03 79.76, 31.79 70.96 M17.51 95.2 C22.13 88.74, 26.4 87, 34.28 76.05 M16.9 94.25 C23.25 87.01, 27.88 80.52, 31.94 76.73" stroke="#868e96" stroke-width="0.5" fill="none"></path><path d="M20.93 1.72 C24.14 3.37, 28.79 10.5, 30.84 17.67 C32.89 24.83, 33.17 35.23, 33.22 44.7 C33.27 54.17, 32.93 66.42, 31.15 74.5 C29.38 82.57, 25.82 89.96, 22.57 93.13 C19.31 96.31, 14.84 95.99, 11.61 93.53 C8.39 91.06, 5.27 85.52, 3.2 78.37 C1.14 71.22, -0.74 60.12, -0.77 50.61 C-0.8 41.1, 1.14 29.11, 3.04 21.33 C4.94 13.55, 7.53 7.01, 10.62 3.94 C13.71 0.86, 19.54 2.87, 21.55 2.9 C23.57 2.92, 22.66 3.52, 22.71 4.08 M11.52 2.42 C14.47 -1.33, 17.7 -1.02, 21.06 1.48 C24.42 3.97, 29.66 9.85, 31.68 17.4 C33.71 24.94, 33.54 37.35, 33.23 46.75 C32.92 56.15, 31.56 66.23, 29.84 73.8 C28.11 81.38, 26.04 88.87, 22.88 92.2 C19.72 95.53, 14.07 96.35, 10.87 93.78 C7.67 91.21, 5.43 84.31, 3.65 76.78 C1.87 69.26, 0.35 58.08, 0.21 48.63 C0.07 39.18, 1.04 27.56, 2.82 20.08 C4.6 12.6, 9.45 6.71, 10.87 3.74 C12.28 0.77, 11.35 1.81, 11.31 2.26" stroke="#1e1e1e" stroke-width="1" fill="none"></path></g><g stroke-linecap="round" transform="translate(150.36073294086145 51.4837680637894) rotate(351.686457534165 16 77.5)"><path d="M9.21 6.68 C9.21 6.68, 9.21 6.68, 9.21 6.68 M9.21 6.68 C9.21 6.68, 9.21 6.68, 9.21 6.68 M5.24 16.1 C12.91 9.22, 15.53 4.13, 19.29 2.43 M6.48 15.23 C12.33 10.43, 17.09 5.15, 19.73 0.95 M4.7 22.68 C9.31 21.1, 13.3 16.57, 20.61 4.99 M5.7 24.75 C8.4 20.77, 12.09 17.19, 21.37 4.33 M3.38 33.74 C9.39 24.88, 14.27 18.17, 21.74 7.33 M2.05 33.25 C8.74 24.88, 15.04 17.75, 24.12 7.95 M7.35 36.38 C11.92 27.36, 16.01 20.96, 27.07 11.49 M5.81 34.51 C9.05 30.57, 14.69 25.72, 25.7 10.98 M3.52 41.29 C13 32.29, 22.36 22.45, 26.02 16.69 M4.65 41.98 C11.15 35.27, 14.81 29.92, 27.7 15.6 M2.96 47.53 C13.31 40.12, 17.94 30.98, 28.19 20.14 M5.24 49.23 C10.12 42.15, 17.15 33.94, 28.98 21.5 M2.96 54.41 C9.7 49.39, 18 40.87, 29.17 27.25 M3.55 55.64 C11.56 49.13, 17.74 40.05, 29.75 25.87 M4.83 59.75 C10.94 56.85, 16.84 50.15, 29.76 32.45 M2.97 62.35 C14.06 51.55, 21.58 39.21, 29.01 31.91 M0.46 69.34 C10 57.13, 23.27 47.43, 29.75 37.38 M1.03 71.51 C8.43 61.96, 18.74 50.38, 30.64 36.83 M0.61 79.18 C8.73 68.82, 16.34 63.22, 32.47 42.68 M0 78.23 C11.88 64.75, 21.95 52, 30.13 43.35 M2.33 82.3 C8.96 76.08, 17.74 66.3, 31.91 48.2 M0.54 83.18 C10.59 72.45, 18.83 62.93, 32 47.69 M0.02 88.43 C7.11 81.72, 16.4 70.8, 33.95 52.58 M1 88.04 C10.36 79.92, 18.49 70.4, 33.23 52.84 M3.25 94.32 C8.91 85.91, 16.56 76.7, 31.45 57.37 M1.51 93.46 C13.21 82.28, 23.68 69.23, 32.68 58.54 M1.92 102.67 C6.45 92.2, 14.37 86.72, 31.46 64.43 M1.39 99.89 C12.14 88.9, 22.46 77.3, 32.46 66.29 M3.44 104.67 C12.21 95.85, 18.69 85.59, 33.03 69.52 M2.58 105.76 C9.45 97.56, 18.98 88.9, 32.06 70.85 M4.59 112.51 C10.72 102.13, 16.12 96.45, 33.74 76.47 M3.69 109.74 C9.65 104.41, 15.56 96.72, 33.1 75.97 M3.35 115.85 C9.88 108.02, 18.34 98.34, 34.22 84.29 M4.19 117.07 C14.08 104.13, 25.86 90.85, 32.07 83.45 M5.33 122.35 C13.59 114.08, 19.29 104.97, 35.21 89.72 M5.01 121.69 C15.09 108.99, 26.4 95.62, 33.69 87.29 M7.04 127.38 C11.47 117.61, 19.12 109.53, 32.88 93.04 M6.07 125.82 C13 117.95, 20.34 109.7, 34.47 93.3 M5.64 131.83 C17.23 121.41, 22.37 110.97, 33.85 101.71 M6.31 131.44 C16 121.92, 24.34 110.82, 33.97 100.52 M8.17 137.03 C14.83 128.69, 17.82 122.82, 32.45 105.94 M7.13 137.04 C15.75 126.56, 24.49 117.83, 32.31 106.5 M7.97 144.09 C14.45 134.02, 26.14 122.8, 34.52 114.68 M7.12 142.6 C15.44 133.41, 23.91 122.64, 32.22 113.05 M11.25 147.3 C19.09 138.46, 25.46 128.7, 29.29 124.13 M10.78 144.86 C16.87 136.78, 23.87 129.07, 29.16 122.52 M14.25 149.74 C17.4 143.26, 23.51 137.26, 28.43 133.43 M12.06 148.59 C18.25 143.98, 22.03 137.39, 28.65 131.2 M14.99 154.45 C15.61 150.26, 20.64 146.54, 26.5 141.3 M14.36 153.69 C18.28 147.78, 22.88 142.94, 25.17 139.98" stroke="#868e96" stroke-width="0.5" fill="none"></path><path d="M17.5 -0.24 C20.17 -0.17, 24.17 7.14, 26.3 14.81 C28.42 22.49, 29.4 34.02, 30.25 45.79 C31.11 57.56, 31.51 72.66, 31.45 85.42 C31.39 98.19, 31.24 111.89, 29.89 122.39 C28.54 132.89, 25.85 142.94, 23.36 148.4 C20.88 153.86, 17.79 156.49, 14.97 155.15 C12.14 153.82, 8.71 148.14, 6.41 140.4 C4.12 132.65, 2.3 120.31, 1.18 108.66 C0.06 97.02, -0.56 83.2, -0.29 70.51 C-0.02 57.81, 1.21 43.14, 2.79 32.51 C4.36 21.88, 6.13 11.52, 9.17 6.72 C12.22 1.92, 18.64 2.63, 21.06 3.72 C23.48 4.81, 23.78 11.93, 23.69 13.25 M21.22 5.28 C23.7 8.33, 27.57 16.64, 29.45 26.09 C31.34 35.55, 32.3 49, 32.54 62 C32.78 75, 31.91 91.53, 30.89 104.08 C29.86 116.62, 28.24 128.8, 26.39 137.29 C24.53 145.78, 22.39 152.55, 19.76 155.01 C17.13 157.47, 13.36 156.46, 10.59 152.03 C7.83 147.59, 4.89 138.42, 3.17 128.41 C1.45 118.39, 0.79 104.49, 0.26 91.94 C-0.26 79.38, -0.78 65.23, 0.02 53.1 C0.83 40.96, 2.75 27.52, 5.07 19.13 C7.39 10.74, 11.16 5.2, 13.94 2.75 C16.73 0.31, 20.72 4.12, 21.78 4.45 C22.84 4.78, 20.67 3.47, 20.29 4.72" stroke="#1e1e1e" stroke-width="1" fill="none"></path></g><g stroke-linecap="round" transform="translate(128.1199748262702 162.8633890064939) rotate(0 47.5 47.5)"><path d="M55.55 0.47 C63.48 1.22, 72.86 6.18, 79.1 12.14 C85.35 18.1, 90.68 27.86, 93.02 36.25 C95.36 44.63, 95.72 54.37, 93.15 62.44 C90.58 70.51, 84.38 79.39, 77.59 84.66 C70.79 89.94, 61.02 93.26, 52.37 94.08 C43.72 94.89, 33.23 93.07, 25.7 89.55 C18.17 86.03, 11.31 80.05, 7.19 72.95 C3.07 65.84, 0.93 55.53, 0.97 46.93 C1.02 38.33, 2.88 28.68, 7.45 21.35 C12.02 14.02, 19.93 6.24, 28.39 2.93 C36.85 -0.38, 52.74 1.64, 58.23 1.48 C63.73 1.32, 61.41 1.09, 61.38 1.97 M66.51 4.94 C74.22 7.69, 83.45 14.97, 87.98 22.08 C92.51 29.19, 93.45 38.95, 93.69 47.57 C93.94 56.2, 93.95 66.82, 89.44 73.83 C84.93 80.83, 74.71 86.2, 66.66 89.59 C58.61 92.99, 49.18 95.14, 41.12 94.21 C33.05 93.29, 24.62 89.49, 18.26 84.03 C11.9 78.57, 5.94 69.88, 2.96 61.47 C-0.02 53.06, -1.61 41.75, 0.37 33.58 C2.35 25.41, 8.03 18.03, 14.84 12.45 C21.64 6.87, 32.57 1.53, 41.19 0.09 C49.81 -1.35, 62.22 3.25, 66.54 3.8 C70.86 4.35, 67.43 2.52, 67.1 3.37" stroke="none" stroke-width="0" fill="#1e1e1e"></path><path d="M42.59 0.91 C50.75 -1.02, 60.91 0.54, 68.4 4.06 C75.88 7.57, 82.98 14.64, 87.51 22 C92.04 29.37, 95.84 39.7, 95.59 48.24 C95.33 56.79, 90.88 66.07, 85.99 73.26 C81.1 80.45, 74.08 87.99, 66.26 91.37 C58.43 94.75, 47.45 94.87, 39.03 93.55 C30.61 92.22, 21.96 89.04, 15.74 83.41 C9.51 77.79, 4.08 68.06, 1.67 59.8 C-0.74 51.54, -1.19 41.98, 1.29 33.83 C3.77 25.68, 9.37 16.56, 16.57 10.89 C23.77 5.23, 39.12 1.52, 44.48 -0.15 C49.85 -1.81, 48.54 0.14, 48.78 0.91 M28.75 3.99 C35.78 0.54, 46.42 -0.14, 55.12 1.21 C63.82 2.56, 74.74 6.3, 80.95 12.08 C87.17 17.87, 90.43 27.6, 92.39 35.92 C94.35 44.24, 95.27 54.06, 92.71 61.98 C90.16 69.91, 83.56 78.16, 77.08 83.45 C70.59 88.73, 62.44 92.4, 53.79 93.69 C45.13 94.98, 33.06 94.95, 25.15 91.18 C17.23 87.4, 10.66 78.7, 6.31 71.06 C1.95 63.42, -1.27 53.91, -1 45.35 C-0.72 36.78, 3.03 26.85, 7.97 19.69 C12.91 12.52, 24.78 4.8, 28.64 2.36 C32.49 -0.08, 30.85 4.01, 31.12 5.03" stroke="#1e1e1e" stroke-width="1" fill="none"></path></g><g transform="translate(155.51091834490921 189.5758169001329) rotate(0 20.021484375 20.69999999999999)"><text x="20.021484375" y="0" font-family="Helvetica, Segoe UI Emoji" font-size="36px" fill="#e9ecef" text-anchor="middle" style="white-space: pre;" direction="ltr" dominant-baseline="text-before-edge">50</text></g></svg>
