<svg version="1.1" xmlns="http://www.w3.org/2000/svg" viewBox="0 0 372.53406572762356 275.5533658607284" width="372.53406572762356" height="275.5533658607284">
  <g stroke-linecap="round" transform="translate(13.308543865111915 128.13094792996583) rotate(0 36.5 36.5)"><path d="M7.81 12.09 C7.81 12.09, 7.81 12.09, 7.81 12.09 M7.81 12.09 C7.81 12.09, 7.81 12.09, 7.81 12.09 M3.69 21.93 C6.25 19.13, 14.04 13.53, 16.4 5.64 M3.52 22.16 C7.97 18.23, 13.21 12.18, 17.96 6.38 M-0.84 32.75 C5.19 26.51, 13.57 15.15, 28.75 0.03 M-1.08 34.07 C6.16 27.26, 11.31 21.23, 28.15 1.5 M1.38 39.26 C13.69 22.73, 23.76 11.74, 32.2 1.67 M0.9 38.06 C12.85 25.94, 21.91 13.69, 33.41 0.37 M3.21 41.78 C15.97 30.32, 23.55 14.67, 39.52 1.37 M2.76 41.84 C13.76 29.97, 25.66 15.85, 38.15 1.7 M3.18 48.01 C20.53 29.97, 33.19 14.39, 41.24 2.96 M4.12 46.59 C15.05 35.45, 26.67 22.1, 43.36 2.97 M6.2 49.42 C22.75 34.02, 37.31 13.61, 49.41 3.26 M5.77 50.98 C15.13 39.48, 25.59 27.82, 46.69 2.17 M4.73 56.72 C17.09 42.43, 30.28 27.55, 50.1 3.34 M5.21 56.46 C21.43 39.11, 35.47 22.22, 51.12 4.83 M9.13 59.8 C24.05 43.31, 42.23 23.65, 53.92 6 M9.16 58.94 C20.41 47.99, 30.6 33.85, 55.78 7.2 M14.39 63.36 C27.89 45.27, 44.46 27.86, 56.44 10.99 M12.57 62.14 C24.31 49.71, 33.61 36.77, 58.64 9.31 M15.85 65.79 C28.03 47.28, 44.16 29.68, 61.43 12.33 M16.6 64.28 C32.77 44.4, 51.12 24.09, 61.96 11.93 M20.31 67.98 C33.19 49.63, 48.04 33.97, 64.69 14.26 M17.98 66.57 C35.03 47.2, 51.98 28.21, 64.35 14.36 M21.95 69.79 C31.59 58.68, 39.75 47.1, 68.54 16.76 M21.14 69.49 C38.16 51.26, 53.98 31.07, 67.58 17.64 M25.45 70.83 C38.16 58.72, 48.39 44.33, 68.3 21.04 M25.65 71.28 C40.1 53.4, 56.13 37.12, 69.25 19.81 M30.48 73.68 C42.98 57.64, 54.97 42.61, 72.85 25.31 M28.91 72.9 C40.92 60.09, 50.56 47.88, 71.63 25.47 M35.63 72.92 C44.44 60.92, 55.04 49.2, 73 31.5 M34.33 72.88 C47.85 58.66, 58.95 45.28, 72.29 30.16 M37.45 74.85 C45.98 62.02, 57.95 53.82, 74.79 32.75 M38.63 72.72 C52.76 57.53, 65.27 43.48, 73.59 33.71 M44.35 72.25 C57.96 58.43, 66.3 48.07, 71.99 41.24 M46 73.42 C56.91 59.83, 66.44 48.95, 73.49 39.72 M54.36 66.13 C60.83 61.2, 65.28 54.89, 69.19 48.37 M56.12 66.99 C60.17 61.87, 63.2 57.75, 70.89 49.54" stroke="#868e96" stroke-width="0.5" fill="none"></path><path d="M28.03 0.79 C34.52 -1.25, 44.06 0.55, 50.73 3.41 C57.41 6.26, 64.34 11.97, 68.07 17.93 C71.8 23.89, 73.58 32.1, 73.12 39.17 C72.66 46.24, 69.99 54.79, 65.32 60.35 C60.64 65.91, 52.25 70.93, 45.07 72.52 C37.89 74.1, 28.9 72.65, 22.26 69.85 C15.61 67.04, 9.06 61.57, 5.22 55.68 C1.38 49.8, -1.19 41.78, -0.79 34.55 C-0.39 27.32, 2.5 17.97, 7.62 12.31 C12.74 6.66, 25.67 2.41, 29.94 0.61 C34.21 -1.19, 33.14 1.06, 33.22 1.52 M35.94 -0.8 C42.79 -1.27, 51.71 3.62, 57.43 7.7 C63.15 11.78, 67.68 17.32, 70.24 23.68 C72.8 30.05, 74.9 38.92, 72.8 45.87 C70.71 52.82, 63.81 61.09, 57.69 65.4 C51.56 69.71, 43.14 71.46, 36.05 71.73 C28.97 71.99, 20.9 70.82, 15.17 66.99 C9.45 63.15, 3.91 55.46, 1.7 48.71 C-0.5 41.96, -0.14 33.44, 1.92 26.51 C3.97 19.58, 8.6 11.59, 14.05 7.12 C19.49 2.66, 30.95 0.71, 34.59 -0.27 C38.23 -1.25, 35.59 0.79, 35.9 1.22" stroke="#1e1e1e" stroke-width="1" fill="none"></path></g><g stroke-linecap="round" transform="translate(142.78663284567006 87.6742601998024) rotate(270 29.554979150751933 79)"><path d="M16.61 7.82 C16.61 7.82, 16.61 7.82, 16.61 7.82 M16.61 7.82 C16.61 7.82, 16.61 7.82, 16.61 7.82 M10.25 23.37 C13.16 16.32, 19.03 10.38, 25.77 5.18 M10.48 21.4 C13.71 16.93, 18.58 10.58, 25.7 2.81 M6.18 31.86 C14.45 23.9, 20.86 17.88, 31.3 1.5 M5.51 31.39 C13.64 22.9, 20.95 15.21, 32.43 1.7 M5.25 39.42 C10.4 32.32, 16.04 24.95, 35.65 5.46 M5.5 38.93 C12.73 30.42, 21.83 19.48, 34.67 4.24 M5.52 47.5 C9.87 39.3, 18.38 30.6, 38.79 8.04 M3.86 47.11 C12 36.71, 19.77 27.86, 38.11 6.31 M4.73 55.98 C12.26 44.09, 23.82 32.36, 42.9 8.75 M3.51 54.27 C14.18 41.34, 26.69 26.34, 42.82 8.81 M2.78 60.77 C13.06 47.25, 22.06 35.69, 44.22 11.6 M1.65 61.25 C11.46 48.83, 22.17 38.14, 45.22 11.41 M-0.41 67.96 C10.46 54.82, 23.27 45.39, 46.13 15.57 M1.85 69.41 C14.96 51.92, 28.73 35.64, 47.53 14.78 M2.25 74.68 C14.71 58.84, 32.33 40.57, 47.05 18.6 M1.45 75.09 C19.56 52.99, 38 31.78, 47.8 20.35 M2.22 79.99 C14.02 65.11, 29.21 47.73, 51.55 22.91 M0.99 80.41 C15.16 63.75, 31.13 46.93, 49.4 23.3 M1.81 86.48 C20.71 65.84, 40.84 41.38, 50.25 26.91 M1.01 86.5 C20.07 64.42, 39.39 42.69, 53.04 28.33 M1.33 92.96 C13.7 79.77, 24.37 63.8, 53.62 31.53 M1.36 92 C17.05 74.67, 33.13 55.93, 52.91 33.65 M3.61 97.7 C13.14 84.55, 28.02 67.87, 53.1 38.66 M2.02 98.04 C19.69 76.52, 38.2 57.29, 54.02 37.2 M-0.15 105.25 C24.13 78.81, 44.3 55.87, 55.03 41.94 M1.2 104.77 C18.66 84.15, 37.97 61.73, 56.4 41.21 M2.04 109.1 C13.33 96.73, 26.96 81.42, 55.1 47.75 M2 109.84 C22.34 86.46, 44.23 62.97, 55.73 46.91 M2.91 112.76 C23.24 94.09, 40.01 72.54, 56.79 52.67 M2.61 115.17 C14.91 101.7, 26.33 88.52, 58.14 51.78 M3.03 117.94 C20.48 102.8, 32.52 89.21, 58 57.55 M3.66 118.94 C18.05 102.7, 31.75 88.96, 56.98 57.3 M3.98 123.61 C25.37 101.28, 43.07 79.43, 58.75 62.95 M5.64 124.31 C15.9 111.06, 26.52 98.71, 58.87 62.23 M6.84 127.47 C22.25 113.14, 35.2 93.28, 59.13 67.94 M7.65 128.73 C22.66 111.15, 37.9 91.98, 59.81 67.08 M7.39 134.7 C20.34 117.51, 30.73 106.48, 60.37 72.56 M8.81 132.38 C26.8 112.59, 46.41 90.51, 60.58 72.35 M8.58 137.72 C22.48 125.21, 31.76 113.04, 60.79 78.34 M9.07 137.73 C25.37 119.81, 39.98 102.98, 60.85 80.84 M13.72 138.66 C24.52 129.26, 32.83 118.41, 60.11 87.03 M12.55 139.73 C27.56 121.73, 44.64 104.54, 59.85 88.07 M14.3 145.93 C30.13 128.33, 44.39 108.31, 56.81 92.12 M15.65 144.1 C25.44 132.85, 34.77 121.64, 57.88 93.56 M17.83 150.14 C27.21 136.56, 36.53 124.1, 57.87 101.1 M17.16 149.07 C25.24 136.77, 35.7 125.55, 58.36 100.88 M20.32 151.38 C34.55 135.86, 50.33 116.73, 57.93 107.66 M18.96 152.37 C29.03 140.59, 37.79 128.49, 57.23 107.56 M20.15 154.01 C33.85 140.01, 48.75 124.16, 58.49 113.01 M20.16 155.75 C33.64 140.6, 47.63 125.28, 58.36 112.16 M25.14 154.31 C38.18 142.2, 49.04 129.32, 57.17 121.35 M26.39 154.42 C33.13 148, 38.44 140.51, 55.12 121.55 M31.92 155.37 C37.48 150.94, 40.68 144.25, 53.27 132.08 M31.48 155.68 C39.32 145.72, 46.99 137.94, 52.14 130.77" stroke="#868e96" stroke-width="0.5" fill="none"></path><path d="M31.22 0.87 C35.61 0.28, 40.92 5.22, 44.81 11.15 C48.7 17.08, 52.08 26.24, 54.56 36.45 C57.04 46.65, 59.39 60.16, 59.69 72.4 C59.99 84.63, 58.37 98.75, 56.37 109.87 C54.37 120.98, 51.2 131.42, 47.69 139.09 C44.18 146.76, 39.8 153.15, 35.31 155.88 C30.82 158.6, 25.23 158.84, 20.76 155.46 C16.3 152.09, 11.82 144.06, 8.54 135.63 C5.26 127.21, 2.53 116.21, 1.1 104.9 C-0.33 93.6, -0.69 80.05, -0.03 67.81 C0.64 55.57, 2.35 41.46, 5.11 31.47 C7.87 21.48, 11.78 12.95, 16.55 7.89 C21.32 2.82, 30.46 1.7, 33.74 1.09 C37.01 0.47, 36.14 3.03, 36.21 4.22 M22.89 1.4 C26.62 -1.99, 32.19 -1.49, 36.63 2.12 C41.08 5.72, 46.12 14.24, 49.56 23.02 C53 31.8, 55.69 43.16, 57.28 54.8 C58.87 66.44, 59.85 80.89, 59.1 92.87 C58.36 104.86, 55.81 117.12, 52.8 126.72 C49.79 136.32, 45.09 145.19, 41.03 150.47 C36.97 155.74, 32.7 159.18, 28.43 158.37 C24.16 157.56, 19.51 151.95, 15.39 145.63 C11.27 139.3, 6.4 130.53, 3.72 120.41 C1.03 110.29, -0.58 96.88, -0.72 84.9 C-0.86 72.92, 1.03 59.9, 2.88 48.54 C4.72 37.18, 6.64 24.74, 10.36 16.75 C14.07 8.76, 22.87 2.98, 25.16 0.61 C27.44 -1.77, 24.32 1.02, 24.07 2.49" stroke="#1e1e1e" stroke-width="1" fill="none"></path></g><g stroke-linecap="round" transform="translate(272.89657599924385 123.00038132419661) rotate(267.00921732549205 17 48)"><path d="M14.5 2 C14.5 2, 14.5 2, 14.5 2 M14.5 2 C14.5 2, 14.5 2, 14.5 2 M7.91 17.88 C7.98 13.14, 12.8 12.12, 17.14 2.95 M7.13 16.81 C8.95 14.32, 11.3 11.4, 19.55 2.99 M4.06 23.95 C9.84 19.46, 11.94 15.42, 21.49 3.23 M4.75 26.2 C10.22 19.54, 16.72 11.58, 23.04 4.03 M2.79 33.19 C11.62 23.07, 22.01 12.19, 26.08 5.1 M3.66 32.24 C12.11 22.15, 20.51 13.37, 26.72 6.72 M-1.48 41.28 C10.71 31.6, 17.83 20.74, 27.63 9.53 M0.58 41.87 C10.47 31.21, 19.99 21.13, 28.41 10.31 M0.97 49.33 C10.14 35.96, 22.08 22.02, 28.23 14.28 M1.65 48.02 C10.94 37.67, 20.28 26.85, 29.54 15.1 M1.38 52.72 C10.2 45.52, 14.64 37.84, 31.19 18.32 M0.86 54.19 C11.07 40.93, 22.15 29.03, 31.36 18.63 M1.43 58.06 C9.13 48.41, 20.61 38.52, 32.85 21.85 M1.27 59.12 C8.65 51.26, 17.96 40.73, 32.98 23.46 M3.82 65.18 C11.38 52.42, 21.51 42.39, 33.03 27.84 M1.82 64.53 C10.5 56.34, 18.05 45.82, 34.14 28.38 M2.78 72.66 C14.02 57.3, 27.21 38.87, 36.3 32.96 M2.05 70.44 C15.05 56.52, 26.91 42.89, 34.62 33.25 M3.84 73.8 C16.82 61.67, 30.04 45.55, 33.68 41.37 M4.18 74.85 C15.41 63.37, 24.65 50.81, 34.29 40.37 M6.45 78.64 C17.3 66.55, 28.86 56.32, 35.87 43.73 M5.93 79.52 C14.79 68.96, 22.25 59.38, 34.55 45.32 M5.7 83.71 C17.48 73, 26.33 62.4, 36.46 50.42 M6.53 83.48 C16.47 73.71, 24.64 61.85, 35.79 51.96 M8.2 88.01 C13.25 81.66, 22.41 71.17, 35.69 59.05 M8.82 88.75 C14.3 80.97, 21.53 73.09, 35.38 57.62 M10.58 91.05 C20.66 82.89, 26.83 73.22, 32.36 63.5 M10 92.14 C19.2 83.19, 26.93 71.85, 33.89 65.94 M14.62 93.03 C19.84 90.32, 24.77 81.46, 30.9 73.58 M13.06 95.16 C18.51 89.48, 22.48 83.27, 32.33 72.26 M19.67 95.19 C23.39 89.71, 28.38 87.21, 28.76 80.96 M17.6 96.05 C20.29 92.67, 23.64 90.06, 29.75 81.27" stroke="#868e96" stroke-width="0.5" fill="none"></path><path d="M14.74 1.73 C17.71 -0.57, 21.6 1.12, 24.59 5.15 C27.58 9.18, 31.23 17.56, 32.69 25.9 C34.15 34.24, 34.05 46.06, 33.35 55.18 C32.65 64.31, 30.78 74.03, 28.48 80.65 C26.18 87.27, 22.84 93.06, 19.55 94.88 C16.26 96.7, 11.78 95.75, 8.73 91.57 C5.68 87.38, 2.77 78.1, 1.25 69.76 C-0.26 61.43, -0.88 50.64, -0.36 41.58 C0.16 32.53, 1.56 22.49, 4.37 15.44 C7.18 8.38, 13.87 1.55, 16.5 -0.73 C19.12 -3.01, 20.03 0.76, 20.14 1.74 M11.81 1.18 C14.96 -2.21, 21.2 -1.28, 24.24 2.11 C27.29 5.49, 28.71 13.7, 30.09 21.49 C31.47 29.28, 32.6 39.38, 32.52 48.84 C32.43 58.3, 31.49 70.69, 29.6 78.25 C27.7 85.82, 24.15 91.71, 21.13 94.22 C18.11 96.72, 14.56 96.64, 11.48 93.27 C8.4 89.91, 4.7 81.98, 2.64 74.03 C0.58 66.09, -1.12 54.86, -0.87 45.62 C-0.63 36.38, 1.72 26.13, 4.1 18.59 C6.47 11.06, 12.07 3.07, 13.36 0.41 C14.66 -2.25, 12.08 1.55, 11.87 2.62" stroke="#1e1e1e" stroke-width="1" fill="none"></path></g><g stroke-linecap="round" transform="translate(328.126771772502 169.6995664592181) rotate(355.2162437701001 17 48)"><path d="M12.72 0.45 C12.72 0.45, 12.72 0.45, 12.72 0.45 M12.72 0.45 C12.72 0.45, 12.72 0.45, 12.72 0.45 M2.28 15.89 C8.6 13.2, 11.23 5.87, 15.33 1.65 M3.84 16.62 C7.62 12, 13.04 6.87, 16.45 0.74 M3.47 23.11 C7.76 16.76, 14.46 7.93, 20.97 5.04 M2.87 24.58 C8.9 17.03, 13.4 11.38, 21.69 3.57 M0.36 32.29 C7.22 25.56, 11.85 17.95, 25.86 7.08 M1.57 31 C9.25 23.17, 17.13 14.28, 24.56 6.08 M2.44 38.03 C10.9 26.11, 20.1 15.08, 26.87 7.73 M1.07 38.37 C11.12 27.79, 20.83 15.55, 26.94 10.35 M-0.44 44.9 C8.74 33.96, 16.19 24.35, 28.3 13.2 M1.69 44.91 C11.99 32.74, 21.8 20.16, 27.28 14.17 M3.14 50.49 C10.43 39.66, 21.85 25.59, 30.52 16.15 M0.41 49.4 C10.69 38.47, 20.8 27.22, 29.44 17.1 M-0.1 55.1 C10.24 46.76, 17.65 35.98, 30.39 23.01 M0.91 56.58 C8.94 47.77, 15.3 40.44, 31.38 21.49 M1.09 60.77 C12.64 48.73, 24.27 33.93, 32.46 26.66 M2.95 61.98 C14.36 47.28, 25.2 35.33, 34.58 24.9 M0.98 68.78 C12.4 52.02, 26.43 40.34, 34.86 33.27 M3.19 67.11 C13.7 55.27, 23.93 42.18, 34.22 30.71 M3.35 73.14 C13.4 60.91, 19.36 54.47, 34.29 35.68 M3.88 72.75 C12.6 60.77, 21.61 51.34, 34.4 37.23 M5.3 76.58 C13.18 70.53, 19.69 58.67, 34.02 43 M4.96 76.68 C12.59 66.73, 21.72 56.29, 34.39 43.1 M7.84 80.59 C16.33 70.64, 25.37 59.82, 35 48.81 M6.88 81.47 C17.17 67.42, 29.6 55.73, 33.99 49.16 M6.29 86.38 C17.62 73.46, 25.97 66.7, 33.06 54.2 M7.24 85.16 C13.71 77.87, 19.57 71.95, 34.97 55.31 M10.83 90.66 C14.93 83.46, 21.13 72.91, 34.67 63.71 M9.62 90.81 C15.5 81.7, 22.74 75.27, 33.12 62.17 M11.64 96.08 C16.7 87.1, 20.02 82.5, 30.83 71.65 M10.93 94.75 C16.09 87.17, 22.4 80.1, 32.33 69.13 M16.71 93.56 C20.48 92.7, 20.32 86.67, 28.21 78.78 M15.51 94.53 C19.91 90.83, 22.04 86.46, 30.03 78.84" stroke="#868e96" stroke-width="0.5" fill="none"></path><path d="M24.11 4.52 C27.09 7.5, 30.88 16.39, 32.43 24.58 C33.98 32.78, 34.01 44.53, 33.41 53.69 C32.82 62.85, 31.06 72.73, 28.84 79.55 C26.62 86.37, 23.34 92.49, 20.07 94.6 C16.8 96.7, 12.31 96.12, 9.22 92.2 C6.12 88.28, 3.12 79.27, 1.51 71.08 C-0.1 62.89, -0.84 52.17, -0.43 43.08 C-0.01 33.99, 1.8 23.66, 4.01 16.54 C6.22 9.41, 9.11 1.74, 12.84 0.31 C16.57 -1.11, 23.77 5.68, 26.38 7.98 C28.99 10.29, 28.73 13.43, 28.49 14.14 M25.53 3.64 C28.42 6.95, 29.67 16.67, 30.82 24.86 C31.96 33.05, 32.75 43.37, 32.4 52.76 C32.04 62.16, 30.79 74.17, 28.68 81.23 C26.58 88.29, 22.85 93.36, 19.77 95.11 C16.69 96.87, 13.17 95.82, 10.19 91.74 C7.22 87.67, 3.75 79.01, 1.92 70.66 C0.1 62.32, -1.27 50.87, -0.76 41.7 C-0.24 32.52, 2.43 22.65, 5.01 15.61 C7.59 8.58, 11.63 1.36, 14.72 -0.49 C17.81 -2.34, 22.13 3.46, 23.56 4.52 C24.99 5.58, 23.25 4.92, 23.3 5.88" stroke="#1e1e1e" stroke-width="1" fill="none"></path></g><g stroke-linecap="round" transform="translate(104.80898609865449 85.37826650420794) rotate(7.530617675306476 13.991778495083054 39.565875824554695)"><path d="M11.02 1.63 C11.02 1.63, 11.02 1.63, 11.02 1.63 M11.02 1.63 C11.02 1.63, 11.02 1.63, 11.02 1.63 M4.07 17.81 C4.98 13.38, 11.74 7.85, 14.64 1.26 M2.9 17.06 C6.58 12.39, 11.48 8.28, 15.69 2.55 M3.25 22.62 C9.29 15.61, 12 12.11, 21.29 3.44 M3.41 23.1 C6.89 17.93, 13.07 12.1, 19.75 3.4 M4.29 30.56 C8.34 20.55, 16.77 13.04, 24.34 5.88 M2.95 29.34 C6.36 24.79, 10.29 20.1, 21.82 5.59 M1.14 38.1 C12.32 24.97, 18.33 14.57, 25.27 9.09 M2.11 37.1 C7.28 30.02, 11.87 24.12, 25.33 9.72 M2.98 44.15 C6.92 33.72, 16.2 29.52, 27.64 13.12 M1.46 42.81 C8.37 35.01, 14.08 27.38, 26.24 14.78 M0.32 47.93 C10.81 37.53, 18.46 31.42, 27.96 19.07 M1.5 48.03 C7.48 41.56, 13.54 34.76, 27.71 19.87 M0.65 53.66 C9.82 44.01, 15.45 37.53, 29.79 22.79 M1.94 54.42 C12.28 42.68, 22.97 30.47, 28.01 24.22 M3.8 58.81 C8.39 52.1, 13.06 46.24, 29.94 28.68 M2.88 60.27 C11.47 49.23, 19.28 40.18, 28.42 29.17 M2.88 65.38 C13.82 57.27, 18.95 45.24, 29.92 37.85 M3.43 65.98 C8.68 59.4, 13.47 53.47, 28.42 36.68 M7.66 68.13 C12.22 65.51, 16.29 58.38, 26.16 42.46 M4.94 68.56 C13.64 57.62, 22.63 47.42, 27.73 43.81 M8.24 71.85 C12.51 65.03, 19.15 56.07, 29.49 49.93 M8.32 71.16 C16.17 62.95, 23.58 53.29, 29.43 49.26 M10.4 75.09 C19.18 67.33, 27.22 56.78, 29.29 54.95 M11.21 75.03 C16.17 69.19, 21.12 62.89, 30 53.59 M11.18 78.9 C17.63 73.38, 24.92 64.1, 27.78 61.73 M13.27 78.56 C15.97 75.72, 19.59 70.69, 27.22 61.74" stroke="#868e96" stroke-width="0.5" fill="none"></path><path d="M11 1.65 C13.53 -0.67, 17.02 0.76, 19.81 4.33 C22.61 7.9, 26.51 15.31, 27.75 23.08 C28.99 30.84, 28.36 42.62, 27.24 50.93 C26.12 59.23, 23.48 68.12, 21.03 72.91 C18.58 77.71, 15.57 80.83, 12.54 79.69 C9.51 78.55, 4.78 72.33, 2.85 66.06 C0.91 59.79, 1.07 50.39, 0.93 42.05 C0.78 33.7, 0.01 23, 2 15.99 C3.98 8.98, 10.58 2.52, 12.83 -0.01 C15.08 -2.54, 15.51 0.3, 15.52 0.84 M10.12 0.72 C12.7 -2.21, 17.42 -0.51, 20.25 3.05 C23.08 6.61, 25.72 14.13, 27.11 22.07 C28.51 30.01, 29.36 42.62, 28.62 50.69 C27.88 58.76, 25.28 65.77, 22.67 70.51 C20.05 75.24, 15.98 79.47, 12.92 79.1 C9.86 78.73, 6.35 74.12, 4.3 68.3 C2.25 62.48, 0.95 52.89, 0.59 44.19 C0.23 35.48, 0.47 23.35, 2.13 16.07 C3.79 8.78, 9.17 2.71, 10.55 0.48 C11.92 -1.75, 10.35 1.86, 10.4 2.69" stroke="#1e1e1e" stroke-width="1" fill="none"></path></g><g stroke-linecap="round" transform="translate(10 203.02371870370774) rotate(0 152.53973173021757 12.02595395383463)"><path d="M5.72 1.33 L299.92 -1.58 L303.59 0.78 L304.33 1.39 L305.98 18.25 L302.9 22.01 L299.2 25.88 L7.85 22.41 L1.21 24.12 L1.28 16.04 L2.24 4.02 L3.41 1.84 L7.11 -0.04" stroke="none" stroke-width="0" fill="#1e1e1e"></path><path d="M6.01 0 M6.01 0 C104.17 -1.56, 201.14 -1.63, 299.07 0 M6.01 0 C122.26 -1.41, 237.08 -2.55, 299.07 0 M299.07 0 C302.57 1.89, 304.8 3.88, 305.08 6.01 M299.07 0 C301.14 -0.15, 302.84 0.45, 305.08 6.01 M305.08 6.01 C306.01 8.76, 305.58 11.23, 305.08 18.04 M305.08 6.01 C305.12 9.28, 304.58 13.65, 305.08 18.04 M305.08 18.04 C306.41 24.01, 303.76 23.73, 299.07 24.05 M305.08 18.04 C305.49 20.1, 303.11 24.59, 299.07 24.05 M299.07 24.05 C232 27.48, 161.62 26.19, 6.01 24.05 M299.07 24.05 C212.81 25.83, 125.62 25.12, 6.01 24.05 M6.01 24.05 C3.46 23.88, 0.49 23.4, 0 18.04 M6.01 24.05 C3.64 23.25, 0.41 22.78, 0 18.04 M0 18.04 C0.06 15.93, 0.39 12.68, 0 6.01 M0 18.04 C0.31 15.77, -0.57 13, 0 6.01 M0 6.01 C-0.42 0.33, 1.39 -0.07, 6.01 0 M0 6.01 C0.92 1.53, 1.85 1.26, 6.01 0" stroke="#e9ecef" stroke-width="1" fill="none"></path></g><g stroke-linecap="round" transform="translate(75.14200258010442 10) rotate(0 47.5 47.5)"><path d="M56.16 0.41 C64.44 1.38, 74.53 7.18, 80.72 12.96 C86.91 18.73, 91.35 26.87, 93.31 35.08 C95.28 43.29, 95.37 53.87, 92.52 62.22 C89.67 70.56, 82.76 79.7, 76.2 85.16 C69.63 90.62, 61.62 94.26, 53.12 94.98 C44.61 95.69, 32.92 93.22, 25.17 89.46 C17.42 85.7, 10.94 79.76, 6.61 72.43 C2.27 65.09, -1.04 54.14, -0.85 45.44 C-0.65 36.74, 2.67 27.08, 7.78 20.23 C12.89 13.37, 20.29 7.1, 29.81 4.32 C39.33 1.53, 57.6 2.78, 64.91 3.5 C72.22 4.21, 73.81 7.72, 73.64 8.59 M45.41 -0.44 C53.45 -1.38, 62.21 2.28, 69.44 6.29 C76.67 10.3, 84.51 16.32, 88.79 23.59 C93.07 30.86, 95.8 41.11, 95.11 49.9 C94.41 58.7, 89.62 69.34, 84.61 76.37 C79.6 83.39, 72.97 88.92, 65.05 92.05 C57.13 95.17, 45.67 96.78, 37.08 95.11 C28.49 93.44, 19.37 88.48, 13.51 82.04 C7.66 75.59, 3.74 65.05, 1.97 56.44 C0.2 47.82, -0.22 38.17, 2.91 30.35 C6.03 22.53, 13.98 14.69, 20.71 9.51 C27.44 4.34, 39.23 0.83, 43.27 -0.71 C47.31 -2.26, 44.64 -0.74, 44.95 0.25" stroke="none" stroke-width="0" fill="#1e1e1e"></path><path d="M55.52 1.43 C63.39 2.04, 72.87 6.53, 79.13 12.21 C85.39 17.88, 91 27.01, 93.09 35.47 C95.18 43.92, 94.45 54.9, 91.68 62.93 C88.91 70.96, 83.1 78.31, 76.48 83.62 C69.86 88.94, 60.43 93.68, 51.98 94.84 C43.54 96.01, 33.48 94.59, 25.81 90.61 C18.14 86.63, 10.28 78.44, 5.98 70.94 C1.67 63.44, -0.45 54.01, -0.02 45.63 C0.41 37.25, 3.75 27.63, 8.57 20.65 C13.38 13.68, 19.43 6.8, 28.85 3.79 C38.28 0.79, 58.08 1.84, 65.12 2.62 C72.15 3.39, 71.59 7.75, 71.06 8.44 M46.5 0.37 C54.8 -0.14, 65.1 2.77, 72.52 7.34 C79.94 11.92, 87.37 20.12, 91.02 27.81 C94.66 35.51, 95.76 45.13, 94.38 53.51 C92.99 61.89, 88.17 71.44, 82.7 78.1 C77.23 84.76, 69.47 91.18, 61.57 93.47 C53.67 95.75, 43.72 94.27, 35.31 91.82 C26.9 89.37, 17.04 84.91, 11.12 78.78 C5.19 72.64, 0.83 63.23, -0.26 54.99 C-1.36 46.76, 1.04 37.33, 4.55 29.37 C8.06 21.4, 13.5 12.24, 20.8 7.21 C28.11 2.18, 43.99 0.31, 48.39 -0.82 C52.79 -1.94, 47.53 -0.5, 47.2 0.47" stroke="#1e1e1e" stroke-width="1" fill="none"></path></g><g transform="translate(102.53294609874342 36.71242789363902) rotate(0 20.021484375 20.700000000000003)"><text x="20.021484375" y="0" font-family="Helvetica, Segoe UI Emoji" font-size="36px" fill="#e9ecef" text-anchor="middle" style="white-space: pre;" direction="ltr" dominant-baseline="text-before-edge">50</text></g></svg>
