<svg version="1.1" xmlns="http://www.w3.org/2000/svg" viewBox="0 0 202.55970411744374 354.15865556380515" width="202.55970411744374" height="354.15865556380515">
  <g stroke-linecap="round" transform="translate(79.83040160079213 10) rotate(0 36.5 36.5)"><path d="M4.55 21.18 C4.55 21.18, 4.55 21.18, 4.55 21.18 M4.55 21.18 C4.55 21.18, 4.55 21.18, 4.55 21.18 M2.01 30.56 C9.06 22.67, 16.4 12.95, 23.04 5.86 M3.48 28.71 C8.62 21.95, 14.23 15.79, 22.84 6.5 M0.1 36.61 C8.58 28.72, 17.73 19.16, 27.49 5.65 M2.33 36.92 C9.9 26.51, 18.07 17.77, 28.47 6.2 M0.7 44.24 C10.7 34.59, 16.59 25.03, 34.71 3.81 M0.72 42.87 C9.1 34.26, 17.72 23.04, 35.35 5.01 M1.49 49.49 C16.28 31.88, 33.93 14.94, 42.13 0.52 M1.93 46.91 C16.7 30.32, 31.83 12.72, 43.5 0.83 M4.23 50.69 C19.04 36.02, 29.92 20.89, 46.89 3.04 M5.89 50.56 C16.01 38.78, 26.54 26, 46.9 3.75 M5.62 56.96 C17.4 43.35, 28.9 33.48, 51.68 5.32 M7.7 55.17 C17.91 40.55, 31.44 25.81, 51.12 3.89 M8.7 60.39 C18.53 46.77, 33.01 31.3, 54.51 4.61 M8.85 58.46 C24.77 41.67, 38.72 24.63, 54.84 6.29 M11.12 60.62 C26.54 43.93, 41.92 29.72, 58.12 6.93 M11.21 63.28 C21.9 48.53, 33.77 37.16, 58.97 8.6 M13.19 63.76 C26.35 51.9, 37.71 39.57, 61.48 7.8 M14.83 64.82 C28.58 48.39, 42.83 33.26, 61.92 10.07 M18.88 66.72 C31 50.78, 48.06 33.46, 65.34 15.29 M18.69 67.17 C29.16 51.23, 42.45 37.6, 64.93 12.85 M23.86 68.2 C31.75 56.18, 46.76 43.32, 68.25 16.44 M22.49 68.52 C37.46 50.93, 51.66 32.92, 65.8 16.67 M27.02 69.36 C34.42 60.11, 47.06 46.11, 68.91 20.58 M25.95 70.17 C39.84 51.84, 54.91 36.05, 68.99 20.39 M28.66 71.66 C40.04 59.24, 53.28 44.32, 70.23 26.3 M30.69 70.56 C40.92 58.49, 51.85 45.95, 69.46 25.26 M32.67 75.07 C42.66 63.75, 48.82 52.83, 70.19 30.96 M32.21 73.73 C42.43 62.78, 53.91 48.97, 71.24 28.61 M41.92 73.3 C51.65 59.07, 61.24 47.06, 73.29 30.92 M39 72.82 C49.21 61.42, 56.93 53.15, 74.71 32.4 M46.63 71.87 C54.25 59.77, 67.7 45.8, 71.6 37.87 M46.7 70.38 C52.46 63.11, 58.43 58.05, 73.26 39.76 M53.05 69.3 C58.63 61.28, 63.19 55.09, 71.88 48.92 M52.48 69.81 C56.78 63.6, 62.29 59.12, 72.32 47.35" stroke="#868e96" stroke-width="0.5" fill="none"></path><path d="M20.02 4.07 C25.87 0.36, 34.33 -0.58, 41.39 0.25 C48.45 1.09, 57.2 4.08, 62.38 9.09 C67.56 14.09, 71.44 22.99, 72.47 30.28 C73.49 37.57, 71.49 46.61, 68.51 52.83 C65.54 59.05, 60.71 64.34, 54.61 67.6 C48.51 70.87, 39.25 73.33, 31.92 72.43 C24.59 71.52, 15.78 67.06, 10.61 62.18 C5.45 57.29, 1.96 49.94, 0.92 43.13 C-0.11 36.32, 1.22 27.74, 4.41 21.33 C7.6 14.92, 16.99 7.49, 20.06 4.69 C23.13 1.88, 22.52 4.03, 22.85 4.51 M28.15 1.45 C34.56 -0.8, 42.82 -0.96, 49.19 1.37 C55.57 3.7, 62.29 9.39, 66.41 15.45 C70.52 21.51, 74.34 30.54, 73.88 37.72 C73.41 44.9, 68.08 52.97, 63.6 58.54 C59.11 64.11, 53.69 68.88, 46.95 71.14 C40.22 73.4, 29.97 74.38, 23.18 72.1 C16.38 69.83, 10.06 63.66, 6.21 57.49 C2.35 51.32, -0.22 42.39, 0.04 35.1 C0.31 27.81, 3.22 19.52, 7.79 13.74 C12.36 7.96, 24.18 2.18, 27.44 0.44 C30.69 -1.3, 27.38 2.47, 27.31 3.32" stroke="#1e1e1e" stroke-width="1" fill="none"></path></g><g stroke-linecap="round" transform="translate(33.29088215375373 72.3779292648037) rotate(36.72398191953576 29.55497915075199 79)"><path d="M16.95 6.79 C16.95 6.79, 16.95 6.79, 16.95 6.79 M16.95 6.79 C16.95 6.79, 16.95 6.79, 16.95 6.79 M10.71 17.39 C17.36 13.84, 21.73 6.77, 25.82 1.88 M11.59 20.17 C13.66 15.16, 17.42 12.65, 25.38 2.18 M6.15 29.13 C16.33 20.24, 25.37 10.37, 32.87 2.69 M7.31 30.03 C14.65 22.1, 20.9 13.5, 32.92 0 M6.82 36.73 C12.24 29.49, 23.16 21.51, 34.3 3.14 M6.11 39.03 C12.58 29.83, 18.86 22.87, 36.1 3.28 M4.05 44.34 C10.76 39.25, 17.51 29.69, 38.6 4.73 M3.72 45.79 C12.12 35.86, 21.46 25.15, 39.49 6.61 M3.35 54.86 C16.29 36.89, 33.09 18.11, 40.73 8.75 M3.27 53.75 C12.99 42.87, 21.71 31.56, 43.14 8.75 M1.97 61.48 C16.69 42.26, 33.83 21.79, 44.88 9.28 M2.68 60.97 C12.56 47.17, 24.4 33.91, 45.12 9.84 M1.73 66.37 C13.39 53.19, 25.87 39.23, 49.99 11.12 M1.19 67.15 C17.62 50.01, 30.45 32.98, 48.75 13.6 M0.49 73.47 C18.44 56.12, 33.64 35.62, 51.23 16.9 M2.65 72.57 C14.06 59.16, 23.51 47.08, 49.89 16.65 M1.09 79.78 C17.71 59.53, 34.56 42.79, 49.48 20.95 M2.1 79.68 C17.27 61.08, 35.14 41.63, 52.11 22.71 M0.01 86.01 C17.08 67.12, 34.46 45.1, 51.52 25.4 M2.29 85.99 C22.42 63.31, 41.83 39.77, 52.64 26.86 M3 89.42 C19.47 68.24, 37.82 47.82, 52.24 30.39 M3 91.16 C21 69.62, 40.3 47.94, 54.38 32.07 M0.58 96.51 C20.63 78.55, 35.91 56.49, 57.37 34.57 M2.3 97.97 C13.5 83.03, 27.43 68.22, 56.31 35.9 M1.46 105.08 C21.49 78.84, 42.9 55.24, 55.77 39.61 M1.73 102.55 C16.44 84.71, 33.28 67.36, 57.59 39.3 M4.73 108.15 C13.52 94.32, 25.25 81.66, 56.85 44.21 M2.22 108.65 C23.32 82.53, 45.05 57.9, 56.67 44.85 M2.12 112.3 C15.6 100.57, 25.95 89.69, 59.38 51.31 M4.13 114.14 C19.62 93.36, 36.68 73.66, 57.92 52.19 M4.03 118.85 C25.31 96.72, 41.6 76.59, 59.74 56.12 M5.01 116.51 C22.6 98.09, 40.18 77.9, 57.58 56.39 M5.15 122.89 C21.79 106.79, 35.83 89.87, 58.04 63.89 M6.96 122.14 C21.71 104.38, 37.04 86.43, 57.63 61.84 M5.86 127.29 C19.18 111.21, 32.65 99.72, 60.26 67.6 M7.81 126.47 C19.79 113.53, 32.18 98.04, 59.7 68.33 M7.13 132.17 C23.74 115.66, 37.22 97.71, 59.85 75.03 M7.73 131.87 C22.25 116.33, 34.51 102.41, 58.44 74.27 M9.31 135.9 C25.12 121.94, 37.59 105.36, 59.75 81.46 M9.83 136.77 C27.36 116.31, 43.96 96.98, 59.22 81.65 M12.32 139.15 C24.94 125.27, 36.27 114.22, 57.33 85.92 M12.05 140 C30.81 119.36, 48.89 97.18, 58.89 86.61 M13.18 143.34 C24.96 129.96, 34.98 121.46, 57.88 93.23 M14.43 143.52 C27.2 128.63, 39.35 116.84, 56.99 93.64 M16.14 148.42 C29.22 134.56, 40.7 123.79, 59.4 101.22 M17.02 146.39 C28.8 134.06, 42.63 118, 58.29 101.1 M20.13 149.06 C30.46 138.59, 41.03 127.59, 58.14 107.23 M19.11 151.26 C32.71 134.81, 47.16 116.82, 58.08 105.99 M19.72 154.51 C31.66 144.55, 36.88 134.8, 59.38 113.1 M21.86 154.45 C33.99 138.99, 48.05 123.25, 58.71 111.13 M26.44 153.96 C32.09 146.13, 40.65 138.95, 55.09 120.75 M25.45 155.59 C34.05 147.51, 40.66 138.17, 55 121.03 M29.85 153.44 C36.24 148.69, 41.24 142.13, 53.16 128.54 M31.82 154.73 C38.35 147.3, 45.98 138.42, 53.2 130.5" stroke="#868e96" stroke-width="0.5" fill="none"></path><path d="M31.54 0.1 C35.88 -0.44, 41.76 4.11, 45.67 10.55 C49.57 16.99, 52.88 27.97, 54.96 38.72 C57.03 49.46, 57.75 63.03, 58.12 75.01 C58.48 87, 58.86 99.6, 57.16 110.6 C55.46 121.6, 51.75 133.47, 47.9 141.02 C44.05 148.57, 38.53 153.7, 34.05 155.92 C29.57 158.14, 25.11 157.78, 21.02 154.34 C16.92 150.9, 12.83 143.78, 9.48 135.28 C6.13 126.78, 2.3 114.98, 0.91 103.33 C-0.48 91.69, 0.24 77.5, 1.14 65.41 C2.04 53.31, 3.66 40.53, 6.3 30.76 C8.93 20.99, 12.68 11.71, 16.95 6.79 C21.22 1.86, 29.09 1.97, 31.91 1.2 C34.72 0.43, 33.89 1.06, 33.84 2.17 M17.57 4.45 C21.47 -0.83, 29.14 -1.87, 33.85 -0.08 C38.57 1.71, 42.19 8.02, 45.87 15.18 C49.54 22.34, 53.7 32.24, 55.91 42.86 C58.12 53.48, 59.17 66.81, 59.11 78.9 C59.04 90.99, 57.54 104.73, 55.52 115.39 C53.49 126.06, 50.64 135.67, 46.96 142.89 C43.28 150.11, 38.22 156.89, 33.45 158.71 C28.68 160.54, 22.71 158.29, 18.34 153.83 C13.98 149.36, 10.16 141.29, 7.27 131.9 C4.38 122.52, 2.13 109.27, 1.01 97.5 C-0.12 85.74, -0.35 73.1, 0.52 61.32 C1.39 49.53, 3.37 35.92, 6.21 26.79 C9.05 17.66, 15.38 9.96, 17.54 6.52 C19.71 3.08, 18.6 5.2, 19.21 6.15" stroke="#1e1e1e" stroke-width="1" fill="none"></path></g><g stroke-linecap="round" transform="translate(39.93868792915782 193.13057733640022) rotate(299.99999999999994 17 48)"><path d="M14.87 -0.33 C14.87 -0.33, 14.87 -0.33, 14.87 -0.33 M14.87 -0.33 C14.87 -0.33, 14.87 -0.33, 14.87 -0.33 M6.02 15.44 C11.14 9.88, 15.55 3.88, 17.09 2.5 M5.21 16.26 C9.6 12.21, 12.28 8.37, 18.19 0.61 M6.4 22.46 C8.72 17.63, 16.06 9.78, 21.34 3.96 M3.62 24.47 C10.68 17.24, 17.2 8.85, 23.21 3.2 M0.53 34.23 C9.47 22.91, 16.94 14.37, 23.81 5.2 M1.61 31.75 C8.23 26.64, 14.41 18.46, 25.14 5.36 M2.65 40.85 C10.62 27.26, 23.27 16.71, 26.82 8.34 M-0.11 39.95 C7.9 32.5, 13.56 25.81, 26.33 9.68 M2.06 42.98 C9.98 35.75, 16.06 28.79, 29.29 16.42 M3.28 43.73 C9.35 37.05, 15.08 27.93, 28.45 14.41 M4.07 52.09 C14.29 38.69, 23.66 26.77, 31.55 20.77 M3.41 49.18 C11.73 39.9, 19.36 30.44, 29.11 18.91 M4.61 53.88 C14.47 41.29, 25.99 29.49, 29.52 23.23 M3.05 55.49 C11.7 46.12, 20.01 37.21, 29.77 24.15 M5.21 62.3 C9.9 52.87, 14.59 47.73, 34.15 27.91 M4.83 61.18 C15.82 48.94, 25.22 36.62, 32.96 26.72 M5.17 67.59 C11.18 55.85, 19.68 47.72, 32.38 33.44 M5.18 66.42 C13.84 55.9, 24.26 42.93, 32.93 33.38 M6.32 71.01 C15.43 63.38, 23.3 51.91, 35.77 38.7 M4.83 71.99 C17.05 58.91, 27.62 45.28, 34.14 38.92 M7.86 77.8 C16.76 66.29, 24.6 55.86, 36.2 44.6 M5.42 76.53 C14.9 65.41, 24.77 53.5, 34.59 44.3 M8.62 80.01 C16.19 71.72, 24.09 64.02, 37.89 49.06 M7.48 81.54 C17.51 70.39, 25.46 61.55, 35.66 47.84 M10.5 84.18 C17.9 76.9, 25.79 66.64, 37.02 56.26 M9.61 85.43 C14.62 78.58, 20.96 70.4, 35.48 54.74 M8.57 89.12 C17.78 81.52, 27.72 71.06, 33.14 60.42 M10.41 89.43 C17.52 80.84, 25.21 72.98, 34.03 63.04 M13.35 92.15 C18.87 83.85, 26.86 74.93, 31.36 68 M12.4 94.14 C20.83 84.82, 29.66 75.88, 33.19 70.15 M18.23 93.36 C20.56 87.08, 25.84 83.33, 33.2 78.72 M17.29 96.06 C20.61 90.71, 24.89 86.94, 31.2 78.12" stroke="#868e96" stroke-width="0.5" fill="none"></path><path d="M14.7 -0.13 C17.76 -2.3, 21.71 0.84, 24.42 5.16 C27.14 9.48, 29.33 17.76, 31.01 25.79 C32.7 33.83, 34.79 44.2, 34.53 53.38 C34.27 62.55, 32.02 74, 29.48 80.83 C26.94 87.67, 22.55 92.66, 19.29 94.4 C16.04 96.13, 12.69 95.09, 9.96 91.25 C7.24 87.41, 4.62 79.46, 2.91 71.36 C1.21 63.26, -0.67 51.91, -0.26 42.64 C0.14 33.36, 2.33 22.7, 5.33 15.71 C8.34 8.71, 15.14 2.84, 17.75 0.66 C20.35 -1.53, 21.09 1.76, 20.96 2.59 M17.39 -1.02 C20.77 -1.04, 26.29 4.35, 28.75 10.38 C31.21 16.41, 31.32 26.05, 32.15 35.16 C32.98 44.27, 34.8 55.9, 33.75 65.04 C32.69 74.19, 28.73 84.69, 25.81 90.01 C22.89 95.33, 19.5 97.72, 16.22 96.96 C12.95 96.2, 8.83 91.58, 6.17 85.44 C3.51 79.3, 0.99 69.44, 0.24 60.12 C-0.52 50.8, 0.35 38.08, 1.64 29.54 C2.94 20.99, 5.43 13.63, 8.01 8.85 C10.6 4.07, 15.52 2.14, 17.14 0.86 C18.76 -0.42, 17.58 0.65, 17.73 1.17" stroke="#1e1e1e" stroke-width="1" fill="none"></path></g><g stroke-linecap="round" transform="translate(68.9163969211238 253.72930251665156) rotate(29.999999999999964 17 48)"><path d="M6.38 10.85 C6.38 10.85, 6.38 10.85, 6.38 10.85 M6.38 10.85 C6.38 10.85, 6.38 10.85, 6.38 10.85 M5.19 18.16 C10.25 11.41, 13.92 7.55, 18.49 1.13 M4.99 18.81 C8.32 14.29, 12.2 8.96, 19.43 1.96 M1.77 27.02 C9.05 19.13, 13.74 14, 22.96 4.16 M2.75 27.57 C8.05 20.67, 14.63 14.55, 22.03 6.01 M1.11 34.23 C9.49 24.73, 17.54 13.88, 23.57 6.86 M1.76 35.43 C10.63 24.51, 18.14 15.17, 25.6 7.5 M3.29 36.98 C13.35 29.06, 19.87 17.38, 26.42 8.8 M4.66 37.29 C11.29 29.82, 17.69 21.38, 27.54 11.41 M4.11 44.03 C9.53 38.08, 18.51 30.48, 28.66 16.37 M4.12 44.74 C10.7 34.55, 19.75 25.74, 30.31 14.86 M4.96 50.84 C11.77 41.36, 22.41 32.2, 31.32 17.41 M4.4 49.41 C11.09 41.07, 18.74 32.29, 32.04 18.05 M3.86 54.66 C13.78 44.69, 21.7 33.64, 32.19 25.09 M4.19 56.34 C12.23 47.88, 19.12 37.95, 31.14 24.31 M0.91 64.53 C6.73 57.62, 16.24 49.44, 35.28 27.79 M1.76 66.19 C6.89 58.37, 14.08 49.43, 33.48 28.34 M1.64 68.41 C13.02 56.65, 22.85 45.48, 36.32 32.19 M2.09 70.68 C10.61 59.63, 18.18 51.48, 35.74 31.47 M5.5 75.9 C12.45 65.36, 23.56 54.02, 37.02 36.99 M5.1 73.46 C10.17 66.19, 16.59 60.54, 35.28 37.63 M7.1 78.56 C16.01 66.41, 26.6 56.56, 35.71 45.37 M4.65 78.79 C15 66.68, 25.22 56.84, 34.66 44.11 M7.77 82.7 C18.55 71.66, 30.03 59.49, 35.68 49.55 M7.84 82.52 C13.48 76.29, 19.85 67.4, 35.65 50.34 M8.43 89.18 C16.17 79.01, 27.01 69.12, 33.96 58.02 M7.65 88.13 C14.94 78.71, 23.09 70.23, 35.78 57.35 M9.69 92.32 C18.28 83.85, 24.33 72.39, 35.46 60.78 M10.75 89.98 C20.9 79.46, 29.76 69.54, 36.24 63.29 M12.8 92.29 C17.64 87.05, 21.26 81.09, 34.56 72.85 M14.21 93.77 C19.02 89.44, 22.16 84.23, 33.22 71.2 M15.7 93.95 C19.76 91.58, 27.3 86.89, 29.75 81.75 M17.36 95.84 C20.45 93.22, 22.58 89.22, 30.28 80.71" stroke="#868e96" stroke-width="0.5" fill="none"></path><path d="M16.59 0.48 C19.46 -0.17, 22.8 3.93, 25.65 8.99 C28.5 14.06, 32.38 22.18, 33.69 30.88 C34.99 39.59, 34.66 52.19, 33.48 61.24 C32.3 70.29, 29.22 79.4, 26.61 85.18 C24 90.97, 20.86 95.44, 17.8 95.94 C14.75 96.44, 11.15 93.3, 8.28 88.16 C5.41 83.03, 1.74 73.94, 0.58 65.13 C-0.58 56.32, 0.33 44.39, 1.33 35.3 C2.33 26.21, 3.8 16.48, 6.58 10.61 C9.36 4.74, 15.81 1.39, 18.01 0.09 C20.21 -1.22, 19.7 1.99, 19.78 2.77 M12.21 2.18 C15.01 -1.4, 17.28 -1.58, 20.48 1.07 C23.67 3.72, 29.2 10.25, 31.4 18.1 C33.6 25.94, 33.7 38.46, 33.68 48.13 C33.67 57.81, 33.14 68.56, 31.31 76.15 C29.48 83.73, 25.94 90.64, 22.71 93.65 C19.48 96.66, 15.03 97.07, 11.91 94.21 C8.79 91.35, 5.95 83.73, 3.99 76.49 C2.03 69.24, 0.46 59.86, 0.14 50.72 C-0.18 41.59, 0.24 29.64, 2.05 21.68 C3.86 13.71, 9.41 6.06, 10.99 2.91 C12.56 -0.24, 11.4 1.92, 11.5 2.77" stroke="#1e1e1e" stroke-width="1" fill="none"></path></g><g stroke-linecap="round" transform="translate(108.91002282238105 102.37898381171436) rotate(346.37300514010843 16 77.5)"><path d="M8.2 8.45 C8.2 8.45, 8.2 8.45, 8.2 8.45 M8.2 8.45 C8.2 8.45, 8.2 8.45, 8.2 8.45 M7.42 16.72 C10.05 11.84, 13.15 8.23, 17.79 1.64 M5.96 15.63 C10.47 12.1, 13.49 7.3, 20.02 1.94 M6.41 23.31 C10.87 18.91, 13.04 17.3, 21.67 5.49 M5.94 23.99 C10.68 17.12, 16.88 10.04, 21.69 4.12 M2.07 32.37 C9.85 28, 11.36 21.1, 22.46 10.74 M3.72 31.81 C7.66 27.22, 13.17 20.94, 22.9 8.16 M4.36 37.58 C7.97 31.81, 13.11 25.82, 24.55 12.7 M4.43 36.48 C12.51 27.35, 20.69 19.98, 26.2 12.56 M2.73 44.18 C13.1 32.59, 18.57 25.62, 24.63 20.48 M5.24 43.86 C11.05 35.73, 17.61 29.55, 26.7 18.69 M2.1 50.36 C7.9 42.84, 13.4 36.99, 26.39 25.42 M3.05 49.84 C7.63 44.64, 12.65 38.49, 26.54 23.49 M2.51 57.6 C11.96 47.21, 22.39 34.56, 28.15 26.4 M3.9 56.96 C11.11 46.55, 20.35 38.02, 28.24 29.06 M3.84 64.91 C11.21 53.59, 18.7 46.09, 26.94 33.31 M3.47 62.87 C10.38 53.55, 19.13 43.47, 28.58 34.38 M2.12 69.31 C11.82 60.86, 16.73 50.27, 30.01 39.3 M1.06 71.1 C9.09 62.72, 15.19 56.52, 29.82 39.74 M0.87 77.55 C7.73 67.85, 13.76 60.66, 33.02 43.04 M2.78 77.02 C7.83 69.58, 13.49 63.08, 31.65 43.35 M2.07 80.2 C11.44 70.16, 19.12 60.13, 32.9 47.97 M2.21 82.14 C8.37 75.17, 14.97 68.6, 31.83 48.78 M4.23 88.82 C9.27 78.91, 19.08 70.57, 30.6 54.8 M2.25 87.59 C11.39 77.94, 19.1 69.95, 32.63 53.7 M2.62 91.98 C13.93 79.83, 22.63 69.17, 31.99 61.23 M3.05 92.35 C13.92 82.17, 23.36 70.57, 31.53 59.89 M2.09 98.53 C7.69 92.57, 14.6 84.07, 34.68 67.01 M2.61 98.8 C13.6 86.68, 24.15 74.01, 31.76 66.53 M5.16 105.07 C14.96 95.3, 25.6 82.25, 33.49 72.37 M2.68 104.38 C8.8 96.91, 16.25 91.37, 33.56 70.88 M3.67 113.24 C13.31 100.85, 26.05 86.57, 34 76.59 M2.05 113.21 C12.15 102.15, 20.36 91.33, 33.43 77.1 M3.42 119.39 C10.02 111.23, 17.61 102.19, 33.36 85.2 M3.01 117.97 C10.38 109.1, 18.06 98.87, 32.73 83.7 M3.22 121.71 C14.22 113.38, 25.15 99.91, 31.78 90.23 M4.12 123.24 C12.16 112.92, 20.4 105.3, 32.87 90.05 M6.22 127.36 C12.19 118.32, 19.72 113.08, 32.01 95.01 M5.34 126.98 C12.78 119.03, 21.34 108.97, 32.63 95.41 M6.83 134.02 C12.73 125.23, 21.96 116.75, 33.57 103.85 M6.63 132.24 C14.48 123.02, 23.43 114.48, 32.03 102.88 M8.18 136.41 C15.53 130.06, 21.61 118.74, 34.21 108.6 M7.2 137.94 C14.33 128.5, 22.19 120.57, 31.62 108.2 M6.98 141.48 C12.02 138.98, 18 130.97, 30.75 115.87 M8.13 142.39 C17.4 134.01, 24.14 123.12, 31.04 115.22 M10.97 146.46 C16.46 142.54, 22.08 135.71, 31.87 121.78 M9.52 147.48 C15.16 140.95, 19.56 137.36, 31.56 120.89 M12.51 150.36 C16.62 146.8, 22.17 140.22, 30.41 132.98 M11.9 150.49 C15.37 145.03, 20.16 141.1, 28.14 130.58 M16.48 152.98 C16.3 149.91, 21.53 148.07, 27.87 139.85 M14.09 153.33 C16.83 150.45, 20.41 146.66, 25.87 139.49" stroke="#868e96" stroke-width="0.5" fill="none"></path><path d="M7.92 8.77 C10.19 2.06, 14.81 -1.46, 17.66 -0.82 C20.51 -0.18, 23.02 5.47, 25 12.62 C26.98 19.78, 28.33 30.52, 29.54 42.12 C30.76 53.72, 32.17 69.09, 32.28 82.21 C32.39 95.32, 31.8 109.87, 30.21 120.81 C28.61 131.75, 25.15 142.04, 22.72 147.84 C20.3 153.65, 18.27 156.51, 15.67 155.66 C13.07 154.8, 9.56 150.01, 7.14 142.72 C4.72 135.44, 2.45 123.49, 1.15 111.95 C-0.15 100.42, -0.93 86.44, -0.66 73.53 C-0.39 60.62, 0.91 46.25, 2.78 34.5 C4.66 22.75, 8.85 8.31, 10.57 3.04 C12.29 -2.22, 12.95 1.74, 13.08 2.91 M11.09 4.77 C13.34 0.44, 17.31 0.33, 19.96 3.13 C22.61 5.92, 25.13 12.83, 26.97 21.54 C28.81 30.25, 30.18 43.22, 31.03 55.38 C31.87 67.55, 32.56 81.74, 32.02 94.51 C31.48 107.28, 29.84 122.34, 27.78 132.01 C25.72 141.67, 22.3 149, 19.68 152.5 C17.05 156.01, 14.44 156.29, 12.02 153.04 C9.59 149.78, 7.06 141.74, 5.13 132.98 C3.19 124.22, 1.35 112.73, 0.38 100.47 C-0.58 88.22, -1.1 71.93, -0.66 59.44 C-0.22 46.96, 0.99 35.01, 3.01 25.54 C5.04 16.07, 9.89 6.17, 11.51 2.62 C13.13 -0.94, 12.76 2.88, 12.73 4.24" stroke="#1e1e1e" stroke-width="1" fill="none"></path></g><g stroke-linecap="round" transform="translate(97.55970411744374 219.20382445924582) rotate(0 47.5 47.5)"><path d="M53.04 0.86 C61.4 1.22, 71.09 5.66, 77.81 10.81 C84.54 15.97, 90.85 23.65, 93.4 31.8 C95.95 39.95, 95.38 51.21, 93.12 59.7 C90.85 68.2, 85.96 77.04, 79.8 82.75 C73.65 88.46, 64.53 92.55, 56.19 93.96 C47.85 95.37, 37.7 94.49, 29.78 91.2 C21.87 87.91, 13.79 81.07, 8.71 74.2 C3.62 67.33, -0.29 58.53, -0.72 49.99 C-1.15 41.46, 1.74 30.63, 6.13 23 C10.52 15.38, 17.04 7.88, 25.61 4.24 C34.18 0.6, 51.53 1.43, 57.54 1.17 C63.55 0.91, 61.89 2.01, 61.65 2.7 M25.39 7 C32.04 2.45, 41.84 -1.43, 50.38 -0.94 C58.91 -0.45, 69.78 4.66, 76.62 9.94 C83.46 15.21, 88.5 22.5, 91.43 30.69 C94.36 38.89, 96.17 50.69, 94.22 59.09 C92.27 67.49, 86.12 75.11, 79.72 81.1 C73.32 87.09, 64.13 93.02, 55.8 95.03 C47.47 97.05, 37.62 96.44, 29.73 93.2 C21.84 89.96, 13.16 82.79, 8.47 75.6 C3.78 68.42, 1.87 58.51, 1.57 50.08 C1.27 41.65, 2.57 32.67, 6.68 25.04 C10.79 17.4, 22.86 7.44, 26.24 4.27 C29.61 1.1, 26.79 5.21, 26.94 6.01" stroke="none" stroke-width="0" fill="#1e1e1e"></path><path d="M58.89 0.26 C67.15 1.3, 75.96 7.94, 81.69 14.1 C87.42 20.26, 91.53 28.78, 93.27 37.2 C95 45.63, 94.91 56.44, 92.09 64.65 C89.27 72.85, 83.37 81.21, 76.33 86.42 C69.29 91.63, 58.43 95.35, 49.85 95.9 C41.27 96.44, 32.23 93.95, 24.83 89.69 C17.44 85.42, 9.68 78.04, 5.48 70.32 C1.29 62.6, -0.97 51.87, -0.36 43.37 C0.26 34.87, 3.83 26.11, 9.16 19.31 C14.49 12.51, 22.96 5.49, 31.62 2.56 C40.27 -0.36, 55.68 1.36, 61.11 1.76 C66.55 2.16, 64.4 4.28, 64.21 4.96 M33.54 3.5 C41.03 0.8, 52.62 0.71, 60.9 2.9 C69.17 5.08, 77.67 10.34, 83.21 16.62 C88.76 22.91, 92.83 32.36, 94.18 40.62 C95.52 48.87, 94.71 58.15, 91.27 66.16 C87.84 74.17, 80.95 83.73, 73.55 88.67 C66.14 93.6, 55.49 95.93, 46.86 95.77 C38.23 95.61, 28.81 92.59, 21.75 87.73 C14.69 82.86, 8.11 74.23, 4.51 66.56 C0.91 58.89, -0.82 50.08, 0.15 41.72 C1.12 33.35, 4.94 22.8, 10.33 16.38 C15.72 9.96, 28.53 5.55, 32.51 3.2 C36.49 0.84, 33.57 1.79, 34.23 2.26" stroke="#1e1e1e" stroke-width="1" fill="none"></path></g><g transform="translate(124.95064763608275 245.91625235288484) rotate(0 20.021484375 20.69999999999999)"><text x="20.021484375" y="0" font-family="Helvetica, Segoe UI Emoji" font-size="36px" fill="#e9ecef" text-anchor="middle" style="white-space: pre;" direction="ltr" dominant-baseline="text-before-edge">50</text></g></svg>
