<svg version="1.1" xmlns="http://www.w3.org/2000/svg" viewBox="0 0 376.1048692015934 303.8616138590811" width="376.1048692015934" height="303.8616138590811">
  <g stroke-linecap="round" transform="translate(26.34902935976629 105.41622906868031) rotate(13.015217389987399 36.5 36.500000000000014)"><path d="M18.67 4.31 C18.67 4.31, 18.67 4.31, 18.67 4.31 M18.67 4.31 C18.67 4.31, 18.67 4.31, 18.67 4.31 M6.7 24.37 C12.44 16.27, 19.46 9.76, 25.95 2.68 M8.26 22.81 C13.48 17.34, 17.61 11.73, 24.35 2.68 M6.2 30.28 C14.84 21.29, 23.98 11.6, 31.42 2.92 M7 31.38 C12.75 23.74, 19.72 16.62, 30.46 3.64 M7.39 36.62 C13.32 26.02, 24.44 15.27, 35.63 -0.26 M5.23 38.66 C17.37 24.62, 28.7 10.08, 37.72 2.5 M3.15 46.97 C17.61 31.19, 32.12 12.53, 41.75 2.35 M4.05 46.54 C14.96 31.51, 26.55 18.17, 42.74 1.95 M6.21 50.09 C17.52 37.9, 27.69 24.51, 43.67 2.69 M5.17 50.75 C21.28 31.16, 36.59 14.01, 45.36 4.28 M7.45 51.34 C18.29 41.72, 24.82 34.06, 50.81 6.72 M7.01 52.41 C20.67 39.4, 33.34 24.36, 49.24 4.92 M9.29 58.06 C24.06 41.09, 37.93 26.05, 51.69 7.18 M9.78 57.77 C23.16 42.75, 36.07 28.13, 53.16 7.38 M11.87 61.36 C27.64 44.39, 42.83 24.37, 58.09 7.57 M11.44 62.17 C27.8 43.11, 43.44 25.21, 56.91 9.59 M12.56 64.86 C22.94 52.82, 31.45 42.25, 62.47 12.15 M12.95 65.07 C33.18 44.48, 51.81 21.69, 60.52 10.05 M15.46 67.19 C36.02 44.52, 52.88 24.67, 64.9 11.44 M17.52 66.8 C35.73 45.67, 54.24 23.48, 64.88 11.66 M22.95 66.77 C36.35 53.26, 49.71 33.65, 65.85 17.52 M21.91 69.57 C29.74 57.8, 39.81 47.14, 66.32 15.18 M24.43 68.52 C35.32 57.15, 47.54 44.4, 67.01 18.67 M24.96 70.44 C39.15 54.7, 52.3 38.76, 69.14 20.23 M28.56 71.87 C38.24 63.08, 47.37 49.06, 70.79 24.22 M27.49 71.6 C37.4 60.82, 47.75 50.82, 70.89 24.29 M33.37 72.52 C41.66 65.89, 49.28 56.6, 73.18 27.77 M32.26 74.35 C48.68 55.05, 63.39 37.64, 73 28.21 M39.15 73.68 C49.97 58.26, 62.34 47.35, 73.92 32.92 M38.52 72.6 C49.9 59.28, 61.93 47.96, 74.64 32.23 M44.58 70.1 C54.76 59.32, 66.08 47.48, 71.99 38.06 M43.98 71.14 C53.13 59.97, 64.46 50.5, 74.01 38.94 M49.61 69.01 C54.46 64.43, 61.44 58.63, 73.07 44.07 M51.33 70.88 C60.03 62.28, 67.02 51.83, 73.52 45.29" stroke="#868e96" stroke-width="0.5" fill="none"></path><path d="M40.23 1.1 C47.11 1.55, 57.19 5.22, 62.44 10.04 C67.68 14.86, 70.43 22.98, 71.69 30.03 C72.96 37.08, 73.04 45.82, 70.05 52.34 C67.06 58.86, 60.24 65.78, 53.76 69.14 C47.28 72.5, 38.34 73.6, 31.15 72.49 C23.96 71.38, 15.54 67.29, 10.62 62.49 C5.71 57.69, 2.74 50.53, 1.65 43.66 C0.55 36.8, 1.21 27.86, 4.04 21.3 C6.88 14.75, 11.83 7.83, 18.66 4.33 C25.48 0.83, 40.42 0.59, 44.98 0.3 C49.54 0.01, 46.16 2.07, 46.02 2.6 M19.47 4.75 C25.2 0.9, 34.76 -1.54, 42.14 -0.66 C49.51 0.22, 58.86 4.61, 63.71 10.02 C68.56 15.42, 70.5 24.44, 71.23 31.77 C71.96 39.11, 71.44 47.66, 68.12 54.01 C64.79 60.35, 57.43 66.54, 51.26 69.82 C45.09 73.1, 37.82 75.14, 31.08 73.68 C24.34 72.21, 15.86 66.45, 10.83 61.04 C5.8 55.63, 2.11 48.36, 0.9 41.24 C-0.3 34.11, 0.38 24.61, 3.61 18.3 C6.84 12, 17.47 5.81, 20.29 3.4 C23.11 1, 20.17 3.31, 20.53 3.87" stroke="#1e1e1e" stroke-width="1" fill="none"></path></g><g stroke-linecap="round" transform="translate(152.21910471119645 92.50270101714673) rotate(283.0152173899874 29.554979150751933 79)"><path d="M9.94 17.91 C9.94 17.91, 9.94 17.91, 9.94 17.91 M9.94 17.91 C9.94 17.91, 9.94 17.91, 9.94 17.91 M8.32 25.36 C17.17 15.64, 22.76 9.17, 27.48 4.43 M8.6 26.12 C14.27 19.82, 19.62 12.62, 28.22 3.12 M6.39 36.41 C15.83 23.34, 26.4 13.13, 33.63 6.22 M5.98 34.32 C16.63 22.33, 25.75 11.99, 31.57 4.7 M4.24 42.63 C11.41 33.71, 24.47 22.51, 39.2 3.25 M4.67 43.33 C12.24 32.67, 21.94 22.42, 37.67 4.89 M4.12 46.37 C15.35 36.93, 27.23 21.42, 40.37 9.09 M5.12 48.71 C16.14 33.24, 27.91 21.56, 40.86 6.89 M2.46 54.8 C14.08 43.01, 24.78 30.16, 43.38 11.48 M3.53 54.72 C15.99 43.37, 26.36 30.25, 42.85 10.18 M3.84 63.55 C10.96 51.4, 19.85 41.63, 44.25 14.72 M3.45 62.15 C15.22 47.03, 27.19 34.47, 44.14 13.14 M2.59 68.82 C17.02 51.66, 31.9 37.14, 46.28 17.63 M3.3 68.71 C16.88 52.29, 31.49 35.64, 47.26 17.27 M2.28 75.02 C18.29 58.01, 33.11 39.74, 49.47 20.02 M1.42 74.96 C13.4 63.4, 26.04 50.21, 49.99 19.93 M2.53 84.36 C11.55 68.57, 22.92 58.08, 52.07 25.25 M0.78 82.07 C11.96 71.17, 21.34 59.89, 52.62 25.09 M3.2 88.3 C17.37 69.89, 32.72 51.3, 54.73 28.17 M2.84 87.57 C22.37 63.91, 43.91 40.29, 53.87 29.63 M3.9 92.83 C23.8 69.01, 40.91 46.68, 53.99 33.15 M2.85 92.88 C18.18 75.39, 32.28 59.52, 54.12 33.5 M3.49 98.2 C19.58 79.19, 37.94 57.94, 55.78 37.09 M5.07 97.29 C19.7 79.78, 35.92 60.65, 54.69 39.02 M2.87 104.42 C15.49 92.16, 27.2 76.77, 58.3 42.38 M5.32 103.69 C22.87 83.78, 39.07 64.41, 56.37 44.15 M5.16 106.78 C19.07 94.82, 31.38 78.6, 57.46 47.44 M4.93 108.34 C23.7 88.17, 40.86 68.08, 56.77 49.21 M5.25 114.81 C25.05 96, 39.4 76.37, 60.4 53.22 M6.01 114.12 C21.65 94.59, 37.53 78.07, 59.45 53.62 M3.95 122.1 C20.15 107.22, 31.77 90.27, 59.67 56.91 M5.37 120.54 C18.51 106.07, 31.03 92.31, 59.93 57.95 M8.69 124.44 C24.66 104.38, 43.27 84.48, 59.42 62.25 M6.97 124.18 C24.84 105.9, 41.12 87.2, 61.57 62.36 M7.92 131.18 C29.57 105.87, 51.12 82.31, 62.16 67.94 M8.03 130.3 C23.73 111.12, 40.84 90.9, 60.16 69.39 M10.45 132.95 C28.26 116.58, 44.37 94.76, 60.28 76.5 M10.2 132.73 C25.72 114.83, 42.19 97.8, 61.11 74.94 M10.33 136.85 C26.07 123.21, 41.65 103.03, 62.3 80.44 M12.12 137.46 C27.5 120.16, 42.02 102.08, 59.48 80.78 M14.34 142.78 C29.98 125.66, 45.44 104.89, 59.58 86.78 M12.68 143.05 C22.43 131.62, 33.85 120.47, 60.48 87.3 M15.49 146.4 C26.73 129.82, 42.89 111.72, 58.61 93.58 M14.27 145.96 C31.31 129.18, 46.71 111.41, 61.43 94.25 M18.51 149.11 C26.85 138.37, 36.08 128.15, 57.75 100.66 M18.05 148.75 C29.98 135.12, 41.39 122.81, 58.32 101.76 M20.75 149.86 C28.01 144.64, 35.61 134.72, 58.72 109.81 M20.53 152.11 C32.01 139.96, 40.99 127.32, 59.03 108.81 M25.57 155.1 C33.53 144.95, 43.21 130.57, 58.22 118.16 M22.81 155.09 C32.13 145.23, 39.83 134.57, 56.65 116.76 M26.61 158.81 C36.2 147.82, 44.56 133.47, 52.66 128.8 M26.49 157.36 C32.73 151.59, 36.86 144.17, 52.04 126.35 M29.21 160.95 C33.28 155.67, 37.2 147.23, 50.3 138.37 M28.92 159.96 C36.82 151.04, 44.37 143.33, 49.71 137.41 M39.68 153.91 C41.69 152.55, 41.84 150.7, 45.62 147.39 M39.89 153.92 C40.84 152.79, 42.32 151.92, 44.91 148.25" stroke="#868e96" stroke-width="0.5" fill="none"></path><path d="M24.79 1.7 C29 -1.78, 32.98 0.16, 37.28 3.66 C41.59 7.16, 47.31 14.1, 50.64 22.67 C53.97 31.24, 56.06 43.54, 57.27 55.08 C58.47 66.61, 58.73 80.03, 57.88 91.87 C57.02 103.72, 54.62 116.33, 52.16 126.15 C49.69 135.98, 46.96 145.49, 43.07 150.83 C39.17 156.17, 33.57 158.85, 28.79 158.21 C24.02 157.57, 18.31 153.29, 14.42 146.99 C10.53 140.68, 7.97 130.65, 5.46 120.37 C2.95 110.09, -0.27 97.57, -0.63 85.3 C-0.99 73.04, 1.51 58.04, 3.29 46.78 C5.08 35.52, 5.79 25.64, 10.07 17.76 C14.36 9.88, 25.16 2.19, 29.02 -0.5 C32.87 -3.18, 33.47 0.12, 33.23 1.65 M19.18 4.88 C23.15 -0.02, 27.79 -0.46, 32.56 1.48 C37.33 3.42, 43.79 9.53, 47.79 16.51 C51.79 23.5, 54.6 32.68, 56.57 43.38 C58.54 54.09, 59.93 68.58, 59.62 80.77 C59.31 92.95, 57.07 105.81, 54.73 116.5 C52.39 127.2, 49.35 138.15, 45.58 144.92 C41.81 151.69, 36.6 155.97, 32.14 157.11 C27.67 158.25, 22.94 156.25, 18.79 151.76 C14.65 147.27, 10.15 139.41, 7.28 130.18 C4.42 120.95, 2.64 108.19, 1.58 96.36 C0.51 84.54, -0.18 71.09, 0.89 59.21 C1.96 47.34, 4.84 34.09, 8.01 25.11 C11.19 16.13, 17.95 8.75, 19.93 5.33 C21.92 1.91, 19.73 3.3, 19.93 4.61" stroke="#1e1e1e" stroke-width="1" fill="none"></path></g><g stroke-linecap="round" transform="translate(287.38459862823447 142.5567757060053) rotate(271.35913056912466 17 48)"><path d="M12.51 1.6 C12.51 1.6, 12.51 1.6, 12.51 1.6 M12.51 1.6 C12.51 1.6, 12.51 1.6, 12.51 1.6 M5.66 15.99 C9.99 11.26, 13.19 8.12, 16.99 4.51 M4.83 16.77 C7.03 12.77, 10.74 10.15, 17.07 2.65 M4.71 24.04 C9.69 18.09, 12.86 14.1, 19.55 5.14 M5.08 23.73 C10.19 17.08, 16.76 9.91, 21.76 4.81 M2.21 31.62 C6.8 23.39, 14.87 18.81, 24.15 5.3 M2.29 30.5 C11.82 22.42, 20.23 12.33, 24.53 5.35 M1.33 38.33 C10.06 28.82, 19.59 17.12, 28.54 10.23 M0.14 38.96 C11.73 28.18, 20.2 17.03, 27.46 10.16 M2.72 43.79 C7.56 34.11, 19.68 26.62, 27.49 13.2 M1.17 45.06 C11.48 33.59, 21.29 21.5, 28.67 13.73 M0.82 52.21 C8.82 45.1, 12.93 37.68, 29.02 16.28 M2.74 49.63 C7.64 42.76, 13.79 36.14, 30.31 17.93 M3.94 55.25 C10.63 44.57, 22.26 30.97, 30.54 21.79 M2.85 55.59 C12.33 44.56, 23.13 31.94, 32.44 21.75 M3.16 59.89 C12.96 49.48, 22.18 39.84, 33.74 25.82 M2.77 62 C14.04 49, 24.7 34.99, 33.65 25.05 M1.75 66.33 C14.42 57.91, 24.02 46.08, 32.69 29.76 M4.26 66.29 C12.67 54.75, 23.8 43.97, 34.97 30.3 M1.4 74.31 C13.75 60.59, 25.38 50.79, 36.67 37.19 M3.52 72.73 C13.1 61.22, 22.59 51.77, 34.38 37.85 M4.32 76.31 C10.01 71.56, 15.52 63.95, 36.36 44.28 M5.05 77.97 C16.41 62.89, 28.48 49.75, 34.82 42.4 M6.88 81.11 C10.86 73.69, 18.37 68.13, 34.05 49.42 M7 80.79 C15.23 72.28, 22.4 62.71, 34.08 49.02 M7.63 84.74 C16.24 76.94, 21.62 66.99, 35.72 52.78 M8.99 85.32 C15.11 79.1, 19.64 72.98, 34.68 54.91 M10.85 91.24 C17.02 82.22, 23.83 75.79, 34.63 61.56 M9.43 90.07 C20.11 79.25, 28.65 68.79, 33.2 62.88 M12.73 94.43 C19.37 86.06, 26.27 76.43, 34.05 69.95 M13.37 93.91 C18.44 87.23, 23.09 82.46, 32.73 69.6 M18.74 92.45 C17.93 90.62, 22.6 90.11, 29.55 78.5 M17.72 94.79 C20.15 91.32, 21.68 87.75, 28.98 79.17" stroke="#868e96" stroke-width="0.5" fill="none"></path><path d="M23.09 4.35 C26 7.32, 30.38 15.74, 32.12 23.88 C33.87 32.01, 34.08 43.89, 33.55 53.16 C33.02 62.42, 31.23 72.65, 28.94 79.48 C26.64 86.32, 22.74 92.04, 19.79 94.18 C16.85 96.32, 14.06 95.91, 11.25 92.34 C8.45 88.77, 4.86 80.93, 2.97 72.76 C1.07 64.59, -0.51 52.8, -0.14 43.31 C0.23 33.82, 3.09 22.77, 5.21 15.81 C7.33 8.85, 9.21 3.51, 12.56 1.54 C15.92 -0.42, 23.41 3.12, 25.33 4.02 C27.25 4.93, 24.23 6.22, 24.1 6.99 M23.51 1.51 C26.44 4.04, 27.84 12.82, 29.47 20.74 C31.11 28.67, 33.34 39.64, 33.3 49.05 C33.27 58.47, 30.99 69.57, 29.24 77.23 C27.49 84.89, 25.69 92.46, 22.82 95.01 C19.95 97.56, 15.22 95.83, 12.03 92.54 C8.84 89.25, 5.76 82.98, 3.66 75.27 C1.56 67.55, -0.52 55.64, -0.58 46.26 C-0.64 36.88, 1.24 26.43, 3.3 19 C5.37 11.56, 8.52 4.42, 11.79 1.63 C15.07 -1.16, 21.12 1.86, 22.94 2.25 C24.77 2.64, 22.76 3.03, 22.73 3.95" stroke="#1e1e1e" stroke-width="1" fill="none"></path></g><g stroke-linecap="round" transform="translate(331.9716577735162 197.90900114443528) rotate(357.2772492020472 17 48)"><path d="M9.45 5.57 C9.45 5.57, 9.45 5.57, 9.45 5.57 M9.45 5.57 C9.45 5.57, 9.45 5.57, 9.45 5.57 M6.23 16.02 C9.04 13.34, 12.96 9.77, 17.59 2.63 M4.63 16.01 C9.9 11.74, 13.74 6.91, 18.82 0.63 M2.52 26.82 C7.22 20.93, 12.75 13.27, 22.77 4.67 M1.56 27.54 C7.78 20.48, 14.39 13.43, 20.78 3.22 M1.48 29.68 C10.23 24.34, 14.05 17.38, 25.39 7.71 M3.57 32.44 C10.18 24.67, 15.8 16.08, 24.37 7.37 M3 37.57 C11.89 26.66, 22.37 17.82, 27.71 9.32 M3.99 37.17 C8.9 30.44, 16.13 23.96, 26.22 11.57 M1.64 41.68 C13.31 34.63, 18.77 23.59, 30.88 13.84 M3.33 43.28 C8.45 36.6, 15.34 29.54, 28.18 14.17 M4.85 50.25 C10.05 41.52, 15.87 31.8, 28.5 19.4 M3.28 48.44 C11.2 39.68, 19.63 30.57, 30.52 18.66 M1.79 55.23 C10.78 44.49, 16.47 38.24, 32 23.36 M3.26 55.43 C11.96 45.17, 19.56 36.95, 31.16 23.37 M4.91 59.39 C14.61 49.38, 22.73 39.11, 32.92 29.11 M3.73 61.41 C12.01 50.05, 21.28 39.62, 31.61 28.52 M6.67 66.99 C14.19 57.94, 17.31 48.28, 33.02 35.3 M4.72 64.9 C16.23 53.57, 26.15 40.78, 32.89 33.66 M5.81 70.06 C15.43 62.78, 23.24 53.28, 33.79 38.86 M5.8 70.28 C15.75 60.35, 25.11 49, 32.8 39 M5.46 77.64 C14.97 65.67, 28.08 54.51, 35.32 43.97 M5.93 75.31 C15.26 65.11, 24.41 54.63, 32.48 44.61 M5.96 79.55 C14.79 72.49, 20.66 65.29, 33.06 52.83 M8.09 81.11 C13.72 73.38, 20.27 65.43, 32.95 51.39 M8.43 86.61 C16.5 73.8, 28.4 61.87, 32.04 55.9 M8.53 86.68 C12.43 81.15, 18.18 74.2, 33.12 57.65 M12.13 88.65 C21.28 79.25, 28.51 68.76, 35.05 63.93 M11.95 89.09 C17.76 81.9, 23 75.18, 33.63 63.29 M13.52 93.05 C18.56 85.39, 24.26 81.47, 33.39 68.39 M14.24 92.36 C18.43 87.71, 22.67 81.19, 33.47 68.59 M14.88 94.42 C20.58 92.9, 23.85 85.37, 30.54 75.35 M16.89 95.29 C18.77 90.93, 22.49 86.72, 31.27 76.22 M18.6 97.51 C23.03 94.47, 25.48 92.08, 30.72 86.37 M19 98.61 C24.13 92.6, 27.68 87.9, 29.82 84.69" stroke="#868e96" stroke-width="0.5" fill="none"></path><path d="M19.07 0.55 C22.29 0.78, 25.57 6.51, 27.85 12.62 C30.13 18.73, 32.12 28.27, 32.76 37.22 C33.4 46.18, 32.7 57.62, 31.68 66.34 C30.67 75.06, 29.28 84.59, 26.67 89.55 C24.06 94.51, 19.54 97.04, 16.02 96.09 C12.5 95.14, 8 90.18, 5.56 83.85 C3.12 77.51, 2.2 67.14, 1.38 58.07 C0.57 48.99, -0.63 38.09, 0.67 29.39 C1.97 20.69, 5.55 10.14, 9.19 5.87 C12.83 1.6, 19.32 2.95, 22.51 3.79 C25.7 4.64, 28.17 10.28, 28.32 10.93 M9.07 4.22 C11.61 0.44, 17 -0.36, 20.24 1.83 C23.48 4.02, 26.09 10.09, 28.5 17.35 C30.91 24.6, 34.11 36.22, 34.69 45.34 C35.27 54.45, 33.75 64.31, 31.97 72.05 C30.2 79.79, 27.31 88.22, 24.06 91.79 C20.81 95.36, 15.82 95.63, 12.48 93.48 C9.15 91.33, 6.14 85.91, 4.04 78.88 C1.95 71.85, 0.1 60.66, -0.07 51.31 C-0.25 41.95, 1.18 30.59, 3 22.74 C4.83 14.89, 9.46 7.13, 10.87 4.22 C12.29 1.31, 11.49 4.39, 11.5 5.27" stroke="#1e1e1e" stroke-width="1" fill="none"></path></g><g stroke-linecap="round" transform="translate(120.0887032241717 85.47847147547921) rotate(5.211047500264178 13.991778495083054 39.565875824554695)"><path d="M8.56 3.47 C8.56 3.47, 8.56 3.47, 8.56 3.47 M8.56 3.47 C8.56 3.47, 8.56 3.47, 8.56 3.47 M4.95 14.09 C9.04 9.63, 12.06 6.67, 15.65 3.26 M4.16 14.84 C6.25 11.06, 9.75 8.58, 15.73 1.5 M0.76 25.91 C6.29 19.32, 10 14.7, 17.57 4.74 M1.13 25.59 C6.96 18.1, 14.25 10.1, 19.78 4.41 M0.23 31.22 C4.32 23.53, 11.93 19.49, 20.19 7.17 M0.3 30.1 C9.09 22.89, 16.75 13.66, 20.57 7.22 M1.32 35.66 C8.86 27.55, 17.21 17.2, 25.24 11.34 M0.12 36.3 C10.44 26.93, 17.66 17.22, 24.16 11.27 M2.7 41.13 C6.55 32.62, 17.65 26.3, 24.19 14.31 M1.15 42.4 C10.21 32.36, 18.74 21.73, 25.38 14.84 M0.8 49.54 C7.91 43.49, 11.09 37.15, 24.41 18.9 M2.73 46.97 C6.67 41.24, 11.83 35.76, 25.7 20.55 M3.93 52.59 C8.46 44.4, 17.89 33.32, 23.97 26.67 M2.83 52.93 C10.1 44.44, 18.69 34.36, 25.86 26.63 M3.8 56.47 C11.32 48.74, 18.25 41.74, 26.51 31.46 M3.41 58.59 C11.82 48.89, 19.61 38.19, 26.42 30.68 M3.04 62.16 C13.15 56.61, 20.2 47.71, 25.46 35.39 M5.56 62.11 C11.34 53.75, 19.78 46.07, 27.74 35.94 M4 68.63 C13.4 58.27, 22.09 51.87, 30.09 42.08 M6.13 67.05 C12.94 58.78, 19.65 52.53, 27.8 42.73 M5.62 72.14 C9.59 69.48, 13.33 63.89, 29.13 49.92 M6.35 73.8 C14.31 62.6, 23.03 53.3, 27.59 48.04 M10.15 74.67 C11.97 69.64, 17.39 66.5, 26.82 55.06 M10.26 74.35 C15.51 69.34, 19.61 63.31, 26.85 54.66 M12.86 76.04 C17.87 72.5, 19.65 66.68, 27.83 59.17 M14.23 76.62 C17.35 73.63, 18.96 70.86, 26.79 61.3" stroke="#868e96" stroke-width="0.5" fill="none"></path><path d="M16.52 1.54 C19.12 2.62, 22.43 8.5, 24.19 14.96 C25.94 21.41, 26.85 31.71, 27.05 40.27 C27.25 48.82, 27.14 59.83, 25.39 66.29 C23.63 72.76, 19.71 77.93, 16.54 79.04 C13.37 80.14, 8.85 77.54, 6.37 72.92 C3.89 68.31, 2.67 59.3, 1.66 51.34 C0.65 43.37, -0.8 33.07, 0.3 25.15 C1.4 17.22, 5.5 7.68, 8.28 3.79 C11.06 -0.1, 15.1 2, 16.99 1.81 C18.88 1.63, 19.42 2.15, 19.61 2.68 M7.22 3.57 C9.49 0.27, 14.62 -0.21, 17.48 2.33 C20.34 4.88, 22.52 11.58, 24.37 18.83 C26.23 26.09, 28.69 37.7, 28.61 45.85 C28.54 54, 26.17 62.29, 23.93 67.74 C21.68 73.19, 18.32 78.23, 15.15 78.57 C11.99 78.91, 7.39 74.91, 4.91 69.79 C2.44 64.67, 0.86 56.01, 0.29 47.84 C-0.29 39.68, -0.04 28.32, 1.44 20.81 C2.91 13.3, 7.84 5.53, 9.13 2.78 C10.41 0.03, 8.97 3.53, 9.13 4.3" stroke="#1e1e1e" stroke-width="1" fill="none"></path></g><g stroke-linecap="round" transform="translate(8.789660825111696 204.4019291395879) rotate(13.015217389987399 152.53973173021745 12.02595395383463)"><path d="M6.38 -1.3 L299.9 1 L304.26 0.76 L306.06 1.73 L304.62 16.18 L302.27 24.53 L299.61 25.24 L6.6 23.62 L1.08 24.49 L-0.96 16.61 L1.14 5.11 L1.67 -1.46 L6.47 1.62" stroke="none" stroke-width="0" fill="#1e1e1e"></path><path d="M6.01 0 M6.01 0 C75.81 1.84, 146.96 -0.61, 299.07 0 M6.01 0 C103.6 -0.47, 202.95 -0.17, 299.07 0 M299.07 0 C303.69 -1.26, 305.78 1.31, 305.08 6.01 M299.07 0 C302.18 -1.87, 305 1.44, 305.08 6.01 M305.08 6.01 C304.82 9.85, 305.46 13.75, 305.08 18.04 M305.08 6.01 C305.07 10.25, 305.09 14.72, 305.08 18.04 M305.08 18.04 C304.89 20.4, 303.44 25.89, 299.07 24.05 M305.08 18.04 C304.65 21.65, 302.8 26.01, 299.07 24.05 M299.07 24.05 C229.45 26.22, 161.67 27.02, 6.01 24.05 M299.07 24.05 C219.17 23.7, 139.5 23.81, 6.01 24.05 M6.01 24.05 C1.53 24.1, 1.2 22.21, 0 18.04 M6.01 24.05 C4.29 22.39, 2.28 21.99, 0 18.04 M0 18.04 C-0.64 15.33, -0.01 11.68, 0 6.01 M0 18.04 C0.17 14.7, 0.2 11.24, 0 6.01 M0 6.01 C0.16 1.21, 3.66 -1.62, 6.01 0 M0 6.01 C1.51 3.59, 2.75 0.29, 6.01 0" stroke="#e9ecef" stroke-width="1" fill="none"></path></g><g stroke-linecap="round" transform="translate(87.68890020641948 10) rotate(357.6804298249577 47.5 47.5)"><path d="M31.79 2.75 C39.29 -0.48, 50.91 0.11, 59.25 2.22 C67.59 4.33, 76.07 9.34, 81.85 15.41 C87.63 21.48, 92.27 30.31, 93.93 38.63 C95.59 46.95, 94.92 57.4, 91.81 65.32 C88.69 73.24, 82.3 81.13, 75.24 86.17 C68.17 91.21, 58.04 95.02, 49.42 95.56 C40.79 96.11, 31.02 93.72, 23.51 89.45 C16.01 85.17, 8.27 77.77, 4.39 69.93 C0.51 62.09, -0.86 51.17, 0.23 42.39 C1.31 33.6, 4.28 24.12, 10.92 17.23 C17.55 10.33, 33.69 3.7, 40.03 1.03 C46.36 -1.64, 48.75 0.56, 48.94 1.22 M47.73 0.61 C55.82 -0.27, 65.76 2.54, 73.12 6.83 C80.47 11.12, 88.12 18.31, 91.86 26.35 C95.59 34.4, 96.84 46.37, 95.53 55.08 C94.22 63.79, 89.52 72.24, 84.02 78.63 C78.52 85.03, 70.86 90.79, 62.53 93.42 C54.21 96.06, 42.53 96.66, 34.1 94.46 C25.66 92.25, 17.38 86.62, 11.93 80.2 C6.48 73.78, 2.83 64.85, 1.39 55.94 C-0.05 47.04, -0.05 34.85, 3.29 26.76 C6.63 18.67, 14.04 12.03, 21.41 7.41 C28.77 2.79, 43.4 -0.07, 47.48 -0.96 C51.56 -1.86, 45.95 1.18, 45.89 2.04" stroke="none" stroke-width="0" fill="#1e1e1e"></path><path d="M62.38 2.06 C70.58 4.22, 80.5 11.72, 86.01 18.64 C91.51 25.56, 94.84 35.12, 95.4 43.57 C95.96 52.02, 93.28 61.86, 89.37 69.31 C85.46 76.77, 79.49 83.97, 71.97 88.3 C64.44 92.63, 52.8 95.83, 44.23 95.31 C35.67 94.79, 27.55 90.2, 20.57 85.17 C13.6 80.14, 5.52 73.03, 2.38 65.11 C-0.76 57.19, -0.21 46.14, 1.72 37.65 C3.66 29.15, 8.3 20.1, 13.97 14.16 C19.65 8.22, 27.01 3.78, 35.8 1.99 C44.58 0.2, 60.79 2.63, 66.67 3.42 C72.56 4.2, 71.25 5.98, 71.09 6.7 M57.32 -0.01 C65.39 0.65, 75.1 6.95, 81.07 12.86 C87.05 18.77, 91.31 27.09, 93.17 35.45 C95.02 43.81, 95 54.85, 92.21 63.02 C89.42 71.2, 83.11 79.26, 76.44 84.51 C69.76 89.77, 60.59 93.63, 52.16 94.56 C43.72 95.48, 33.32 93.9, 25.81 90.07 C18.3 86.25, 11.41 78.92, 7.09 71.61 C2.77 64.3, -0.44 54.83, -0.11 46.2 C0.21 37.57, 3.97 26.83, 9.03 19.83 C14.09 12.84, 22.3 7.6, 30.25 4.24 C38.2 0.88, 52.27 -0.14, 56.72 -0.3 C61.17 -0.47, 57.12 2.3, 56.95 3.24" stroke="#1e1e1e" stroke-width="1" fill="none"></path></g><g transform="translate(115.07984372505871 36.71242789363899) rotate(357.6804298249577 20.021484375 20.700000000000003)"><text x="20.021484375" y="0" font-family="Helvetica, Segoe UI Emoji" font-size="36px" fill="#e9ecef" text-anchor="middle" style="white-space: pre;" direction="ltr" dominant-baseline="text-before-edge">50</text></g></svg>
