<svg version="1.1" xmlns="http://www.w3.org/2000/svg" viewBox="0 0 166.61675950188123 387.3769567740146" width="166.61675950188123" height="387.3769567740146">
  <g stroke-linecap="round" transform="translate(83.61675950188123 10) rotate(0 36.5 36.5)"><path d="M12.65 8.35 C12.65 8.35, 12.65 8.35, 12.65 8.35 M12.65 8.35 C12.65 8.35, 12.65 8.35, 12.65 8.35 M4.06 25.76 C7.85 17.73, 16.92 9.16, 20.35 6.13 M2.79 26.86 C8.46 19.18, 12.55 14.89, 19.74 6.26 M2.74 28.83 C9.55 21.91, 15.31 16.02, 30.41 1.92 M4.99 30.91 C9.73 23.17, 15.98 17.49, 27.76 2.3 M3.63 34.24 C11.21 28.92, 19.41 18.21, 33.78 0.68 M4.5 35.37 C16.99 21.99, 26.99 10.42, 35.15 2.71 M5 40.15 C15.44 30.55, 24.91 15.62, 38.81 2.22 M4.08 42.06 C15.87 29.38, 27.23 16.63, 38.24 3.83 M5.49 46.21 C13.86 34.04, 26.7 22.37, 41.73 4.07 M5.93 46.67 C19.28 32.57, 31.77 17.09, 44.01 2.42 M7.01 54.61 C15.26 41.62, 28.92 25.73, 48.26 4.56 M6.27 52.02 C15.53 42.2, 24.65 29.32, 47.44 4.84 M10.17 54.3 C19.23 46.74, 28.35 31.96, 52.28 7.3 M8.52 56.5 C23.31 38.4, 37.25 22.22, 51.97 5.82 M10.51 57.5 C19.19 45.29, 30.14 37.73, 55.43 5.87 M11.35 58.94 C26.77 40.38, 44.87 20.75, 56.79 5.45 M15.33 62.45 C27.47 44.44, 40.23 29.5, 60.65 10.93 M13.19 61.49 C29.8 43.92, 44.57 24.94, 60.2 8.47 M15.13 65.64 C28.63 52.28, 39.01 38.52, 63.5 13.35 M15.43 66.18 C27.31 51.78, 40.16 36.03, 62.62 13.7 M18.47 67.35 C32.58 49.67, 52.16 32.83, 65.82 15.78 M19.07 68.65 C33.75 49.35, 51.13 30.19, 64.02 15.83 M24.12 71.08 C33.93 54.69, 46.3 42.24, 69.22 19.14 M22.59 69.91 C38.19 53.27, 51.62 36.41, 67.17 18.18 M28.67 72.89 C42.69 54.31, 55.53 36.67, 68.5 20.62 M27.27 71.85 C39.53 57.3, 51.21 42.16, 68.82 22.95 M30.54 72.35 C41.12 62.16, 50.21 48.9, 71.19 26.42 M31.06 72.46 C41.76 58.91, 53.03 47.3, 72.97 24.16 M34.93 72.29 C48.78 59.22, 59.45 45.34, 71.15 30.78 M37.17 71.86 C47 58.82, 58.97 47.55, 72.17 31.02 M39.24 72.79 C48.1 62.48, 57.84 54.23, 71.85 35.15 M41.29 74.53 C53.14 58.82, 67.46 43.97, 72.67 35.3 M47.23 72.94 C57.42 61.23, 66.29 49.85, 75.37 40.55 M47.5 71.29 C56.77 60.91, 63.64 52.4, 73.09 41.89 M57.98 67.13 C61.89 60.19, 68.07 53.48, 75.19 46.22 M56.98 67.88 C60.97 62.11, 65.27 57.42, 74.95 45.81" stroke="#868e96" stroke-width="0.5" fill="none"></path><path d="M32.96 0.47 C39.76 -0.7, 49.75 1.62, 56.03 5.37 C62.31 9.12, 67.96 16.49, 70.64 22.95 C73.33 29.41, 73.74 37.23, 72.13 44.14 C70.51 51.06, 66.43 59.64, 60.96 64.43 C55.48 69.22, 46.52 72.16, 39.28 72.88 C32.03 73.59, 23.46 72.46, 17.48 68.7 C11.5 64.93, 6.08 57.03, 3.39 50.3 C0.71 43.56, -0.12 35.21, 1.37 28.28 C2.86 21.35, 6.53 13.51, 12.34 8.71 C18.14 3.9, 31.85 0.68, 36.21 -0.55 C40.58 -1.78, 38.65 0.75, 38.53 1.31 M52.79 4.97 C59.01 7.93, 66.03 15.27, 69.28 21.38 C72.52 27.49, 73.32 34.96, 72.26 41.65 C71.21 48.34, 68.24 56.52, 62.93 61.53 C57.62 66.54, 47.93 70.78, 40.4 71.72 C32.87 72.65, 23.87 70.47, 17.78 67.13 C11.68 63.8, 6.9 58.04, 3.83 51.72 C0.75 45.4, -2.11 36.14, -0.66 29.21 C0.79 22.28, 7.22 15.01, 12.53 10.13 C17.83 5.24, 24.28 0.7, 31.15 -0.1 C38.03 -0.9, 50.24 4.33, 53.79 5.32 C57.34 6.3, 52.63 5.63, 52.47 5.82" stroke="#1e1e1e" stroke-width="1" fill="none"></path></g><g stroke-linecap="round" transform="translate(63.71984147691478 80.94162257904117) rotate(18.46919000637182 29.554979150751933 79)"><path d="M11.75 14.19 C11.75 14.19, 11.75 14.19, 11.75 14.19 M11.75 14.19 C11.75 14.19, 11.75 14.19, 11.75 14.19 M7.73 22.67 C16.78 14.79, 22.39 7.94, 26.29 3.36 M8.93 22.25 C13.71 19.14, 17.71 12.68, 27.82 2.25 M5.2 34.17 C15.56 19.73, 25.57 9.13, 32.73 3.64 M7.34 32.54 C12.72 24.8, 19.03 18.49, 31.77 2.67 M2.65 40.03 C14.69 32.3, 24.16 20.27, 36.03 3.87 M4.88 40.41 C13.05 30.3, 23.01 19.5, 35.12 5.01 M5.55 47.69 C11.13 36.98, 21.32 28.46, 42.61 6.39 M4.78 46.65 C15.6 32.82, 27.44 21.71, 40.29 5.12 M5.41 53.44 C17 37.91, 29.65 21.27, 43.09 8.12 M6.06 52.42 C17.7 37.33, 31.69 21, 43.35 9.22 M5.69 58.54 C16.8 42.43, 33.3 25.53, 44.83 13.7 M5.25 59.76 C20.07 40.51, 37.99 22.11, 44.44 13.36 M2.77 65.02 C17.95 48.97, 32.66 31.32, 47.69 17.8 M3.05 65.54 C16.53 52.26, 26.87 40.76, 47.2 16.01 M4.12 73.92 C17.67 56.04, 30.86 40.36, 49.37 18.61 M2.28 72.01 C20.75 53.07, 39.43 32.52, 49.9 19.7 M1.77 79.31 C14.11 67.13, 25.93 49.79, 49.7 22.32 M1.09 81.06 C13.36 66.65, 27.33 50.9, 51.46 23.87 M3.1 85.24 C12.98 73.74, 29.03 58.45, 53.36 27.65 M1.52 87.41 C18.55 69.22, 34.14 51.16, 53.9 27.56 M1.15 92.57 C20.5 68.24, 42.53 46.97, 53.48 31.1 M1.5 91.67 C21.39 71.05, 41.03 47.95, 53.74 32.94 M2.62 97.91 C17.47 79.26, 32.72 62.39, 55.71 37.91 M2.71 97.56 C21.95 73.58, 41.9 50.81, 55.78 36.53 M4.16 101.63 C19.64 80.92, 39.78 61.16, 55.13 41.83 M4.48 102.18 C15.09 88.2, 28.46 74.56, 55.79 43.23 M3.13 109.38 C13.92 96.36, 24.9 83.49, 59.04 46.15 M4.44 107.74 C17.05 92.98, 29.19 79.76, 57 47.54 M3.13 114.05 C27.85 88.53, 48.17 65.39, 56.49 50.17 M3.69 113.81 C17.24 99.19, 29.33 86.56, 57.44 52.36 M5.47 120.56 C24.31 95.19, 42.79 75.66, 59.08 56.45 M6.09 118.33 C18.62 104.37, 31.09 88.46, 58.48 58.42 M6.07 121.11 C19.87 107.23, 32.16 94.8, 62.46 60.79 M6.84 123.11 C27.08 99.97, 47.62 76.26, 62.01 60.58 M8.89 125.63 C28.84 106.27, 44.08 85.29, 61.93 66.07 M9.76 126.57 C21.88 113.79, 32.85 99.61, 61.89 65.84 M8.8 130.86 C26.86 111.99, 44.22 93.16, 61.78 71.15 M9.82 131.02 C23.91 117, 34.82 104.39, 60.98 72.54 M11.76 136.28 C31.06 116.66, 45.91 94.35, 63.54 79.37 M11.11 136.86 C29.23 116.64, 44.74 98.45, 61.15 79.15 M14.91 139.63 C22.87 127.79, 33.26 116.32, 60.84 84.14 M12.67 140.38 C32.33 117.9, 51.37 95.13, 61.89 85.99 M15.51 144.67 C32.68 124.12, 50.58 105.86, 62.17 89.36 M15.2 145.71 C30.85 125.13, 48.36 106.51, 60.83 90.02 M18.99 148.19 C33.76 128.16, 52.71 108.66, 61.83 99.46 M16.82 148.11 C25.77 136.73, 35.66 127.38, 60.44 99.06 M19.27 152.98 C31.58 138.86, 41.82 127.66, 57.93 108.11 M19.17 151.22 C27.74 141.37, 35.33 132.68, 57.76 106.8 M21.43 151.84 C37.71 140.38, 49.74 121.85, 55.36 116.28 M23.85 153.28 C30.6 145.05, 37.1 136.82, 57.13 115.02 M25.33 156.87 C34 150.36, 38.11 141.08, 56.58 121.18 M25.71 156.67 C31.99 148.85, 40.67 140.14, 54.75 122.9 M29.71 158.9 C37.11 148.62, 42.76 140.79, 53.09 132.53 M28.82 159.6 C36.89 149.74, 44.9 141.08, 51.89 131.48 M36.72 157.97 C38.6 154.17, 41.65 149.24, 44.74 146.41 M36.64 157.14 C39.42 152.63, 43.33 147.55, 45.62 145.9" stroke="#868e96" stroke-width="0.5" fill="none"></path><path d="M40.35 4.88 C44.74 7.81, 48.95 17.54, 51.93 26.46 C54.91 35.38, 57.06 46.61, 58.21 58.4 C59.37 70.18, 59.98 85.14, 58.87 97.16 C57.76 109.18, 54.68 121.16, 51.57 130.53 C48.46 139.9, 44.33 148.93, 40.22 153.36 C36.11 157.79, 31.36 158.55, 26.92 157.1 C22.47 155.65, 17.48 151.43, 13.56 144.66 C9.63 137.9, 5.55 127.34, 3.36 116.49 C1.18 105.65, 0.41 91.71, 0.44 79.6 C0.47 67.49, 1.6 54.82, 3.53 43.86 C5.47 32.89, 8.22 21.04, 12.06 13.83 C15.9 6.62, 21.5 1.68, 26.56 0.6 C31.61 -0.47, 39.23 5.23, 42.38 7.4 C45.54 9.56, 45.59 12.3, 45.49 13.59 M14.84 8.19 C18.04 1.72, 23.35 -1.5, 28.13 -1.46 C32.9 -1.43, 39.39 2.62, 43.47 8.41 C47.54 14.19, 49.8 23.1, 52.57 33.25 C55.34 43.41, 59.38 57.14, 60.07 69.32 C60.75 81.51, 58.5 94.78, 56.68 106.38 C54.86 117.97, 52.63 130.55, 49.13 138.89 C45.62 147.23, 39.97 153.8, 35.65 156.42 C31.33 159.04, 27.24 157.43, 23.22 154.6 C19.19 151.77, 15.25 147.42, 11.5 139.45 C7.76 131.48, 2.72 118.58, 0.76 106.76 C-1.19 94.94, -0.77 80.71, -0.2 68.54 C0.37 56.38, 1.35 43.57, 4.17 33.78 C6.98 24, 14.73 13.55, 16.7 9.84 C18.67 6.13, 15.65 10.23, 15.96 11.52" stroke="#1e1e1e" stroke-width="1" fill="none"></path></g><g stroke-linecap="round" transform="translate(87.49503388079347 211.20948544423476) rotate(306.22394159735757 17 48)"><path d="M9.64 5.73 C9.64 5.73, 9.64 5.73, 9.64 5.73 M9.64 5.73 C9.64 5.73, 9.64 5.73, 9.64 5.73 M6.32 15.27 C9.18 13.02, 12.47 10.33, 18.74 2.77 M5.35 17.36 C9.54 11.86, 14.27 5.12, 18.68 1.59 M1.36 25.92 C9.1 20.58, 10.21 15.55, 23.31 4.89 M3.51 25.87 C9.07 17.84, 16.56 9.66, 22.64 2.92 M2.83 31.41 C6.88 25.46, 13.85 20.11, 24.27 6.5 M1.84 33.04 C8.69 27, 13.48 19.75, 24.18 6.78 M1 36.93 C8.15 31.29, 13.92 23.84, 27.58 8.26 M2.97 38.22 C10.67 29.44, 19.47 19.21, 27.62 10.21 M2.77 44.49 C6.71 38.68, 16.32 28.54, 29.43 14.55 M1.73 45.29 C8.54 36.79, 14.91 29.72, 28.79 14.16 M1.27 51.37 C13.97 38.03, 24.54 25.26, 32.39 17.06 M0.44 51.52 C7.44 44.43, 14.1 35.86, 32.91 17.17 M3.35 54.85 C8.85 50.6, 15.75 40.51, 34.97 21.72 M2.18 56.52 C12.62 45.08, 22.28 33.47, 33.94 20.73 M2.5 64.02 C8.81 54.04, 19.08 46.82, 32.39 27 M3.45 62.31 C12.67 50.32, 22.88 39.77, 33.05 27.6 M2.19 66.93 C14.9 57.78, 24.47 46.78, 34.06 30.84 M3.24 66.75 C11.69 57.91, 17.62 49.97, 33.89 31.2 M5.53 70.2 C15.88 61.91, 23.16 51.89, 35.19 35.48 M4.44 71.32 C17.35 59.85, 28.27 46.06, 35.92 36.58 M7.98 77.66 C13.87 69.89, 20.58 63.52, 35.55 44.43 M6.33 76.11 C13.55 68.22, 22.24 58.07, 34.93 43.64 M5.61 82.46 C18.83 71.46, 27.47 58.51, 36.27 49.2 M6.58 82.1 C14.43 72.4, 23.24 63.6, 35.63 50.15 M8.48 84.97 C17.47 73.01, 28.38 64.24, 32.76 57.06 M8.36 85.35 C17.47 75.77, 27.07 63.44, 34.23 55.74 M10.3 88.34 C17.73 81.76, 26.02 70.09, 36.11 61.06 M11.77 88.83 C20.8 78.38, 29.89 69.35, 33.69 62.17 M12.5 93.51 C17.05 86.8, 24.44 79.59, 33.4 72.52 M13.65 93.6 C17.14 88.54, 21.87 82.04, 31.68 70.07 M15.72 95.9 C17.81 91.47, 24.51 86.69, 29.7 82.28 M16.82 95.85 C20.28 89.6, 26.73 84.74, 28.45 80.43" stroke="#868e96" stroke-width="0.5" fill="none"></path><path d="M20.34 1.36 C23.39 2.07, 26.86 7.12, 29.19 13.77 C31.52 20.42, 33.91 31.87, 34.33 41.27 C34.75 50.67, 33.35 61.74, 31.69 70.17 C30.03 78.6, 27.2 87.75, 24.37 91.87 C21.54 95.99, 17.87 96.59, 14.69 94.89 C11.52 93.18, 7.77 88.32, 5.31 81.65 C2.86 74.98, 0.45 64.26, -0.04 54.87 C-0.53 45.47, 0.73 33.5, 2.36 25.29 C3.99 17.08, 6.6 9.63, 9.76 5.59 C12.91 1.54, 18.88 1.22, 21.3 1.02 C23.73 0.81, 24.37 3.58, 24.32 4.36 M20.04 -0.61 C23.43 0.08, 28.51 6.77, 30.66 13.7 C32.81 20.64, 32.98 31.67, 32.96 40.99 C32.94 50.31, 31.97 61.32, 30.56 69.63 C29.15 77.95, 27.5 86.75, 24.5 90.89 C21.5 95.03, 15.68 96.13, 12.56 94.48 C9.45 92.82, 7.96 87.76, 5.8 80.96 C3.63 74.15, 0.23 62.82, -0.41 53.63 C-1.04 44.44, 0.49 33.86, 2.01 25.82 C3.52 17.77, 5.55 9.71, 8.69 5.35 C11.83 1, 18.68 0.08, 20.83 -0.32 C22.98 -0.72, 21.95 2.05, 21.6 2.95" stroke="#1e1e1e" stroke-width="1" fill="none"></path></g><g stroke-linecap="round" transform="translate(109.81209251724158 283.22646837680276) rotate(17.0957551741865 17 48)"><path d="M7.53 6.55 C7.53 6.55, 7.53 6.55, 7.53 6.55 M7.53 6.55 C7.53 6.55, 7.53 6.55, 7.53 6.55 M5.39 15.65 C8.62 13.1, 13.28 7.54, 20.02 2.05 M4.79 15.78 C7.56 11.14, 11.66 8, 17.74 -0.35 M4.96 23.51 C6.06 18.65, 13.14 15.15, 22.87 2.89 M2.31 23.9 C6.49 19.34, 11.67 13.75, 20.65 2.49 M1.77 29.83 C11.8 20.99, 17.84 12.34, 22.86 7.85 M3.14 31.85 C6.99 25.68, 11.05 20.3, 23.14 6.1 M2.2 36.65 C10.75 26.4, 19.56 16.28, 27.32 9.6 M1.63 38.26 C8.66 29.93, 17.11 20.57, 25.71 8.9 M0.54 43.78 C8.99 34.88, 14.67 29.85, 28.28 13.83 M2.81 42.13 C10.18 33.9, 18.29 24.62, 30.11 11.2 M2.47 49.56 C11.54 38.58, 23.83 25.37, 28.73 17.54 M1.65 49.84 C11.82 37.63, 23.65 26.64, 29.31 17.68 M1.9 57.57 C13.75 41.88, 26.18 30.34, 31.34 23.2 M1.58 56.1 C7.89 48.49, 16.17 39.73, 30 21.86 M1.11 60.68 C10.05 54.81, 13.25 47.24, 32.01 25.79 M2.47 60.26 C12.9 49.23, 22.19 38.27, 31.83 27.4 M5.02 67.25 C11.49 60.17, 16.01 50.38, 31.4 33.59 M4.57 64.79 C12.57 54.84, 21.21 44.58, 32.79 33.06 M6.55 71.18 C11.76 63.7, 18.99 52.68, 35.08 35.62 M5.67 71.52 C15.94 58.91, 25.9 46.93, 33 36.48 M6.91 75.87 C13.93 68.67, 19.93 60.34, 33.01 42.45 M5.11 75.92 C12.29 67.63, 18.53 61.04, 34.05 43.18 M8.99 80.74 C13.33 72.89, 19.55 66.99, 33.04 52.11 M6.95 79.78 C15.17 71.74, 22.79 63.4, 34.14 50.77 M6.3 84.49 C15.23 78.18, 21.55 68.54, 35.08 56.44 M6.63 86.81 C15.29 75.87, 24.15 66.06, 34.08 55.48 M9 90.28 C18.11 77.92, 29.6 67.21, 35.31 61.03 M10.77 88.02 C16.36 82.97, 21.22 74.85, 33.23 62.44 M10.93 92.38 C19.96 83.33, 27.53 77.73, 32.27 66.49 M11.95 92.62 C17.2 85.29, 21.46 80, 33.32 67.09 M14.25 93.73 C20.89 89.06, 22.94 88.49, 32.5 75.96 M15.07 93.88 C20.83 89.67, 23.91 83.9, 31.84 77.07" stroke="#868e96" stroke-width="0.5" fill="none"></path><path d="M18.34 -0.44 C21.51 -0.47, 26.05 5.59, 28.51 11.77 C30.98 17.95, 32.46 27.42, 33.12 36.65 C33.79 45.87, 33.63 58.51, 32.51 67.13 C31.4 75.75, 29.16 83.59, 26.43 88.38 C23.7 93.17, 19.6 96.53, 16.16 95.86 C12.72 95.2, 8.32 90.55, 5.78 84.37 C3.24 78.19, 1.62 67.82, 0.92 58.81 C0.23 49.8, 0.48 39.07, 1.62 30.33 C2.75 21.58, 4.16 11.07, 7.71 6.34 C11.27 1.62, 20.07 1.96, 22.95 1.96 C25.83 1.97, 25.19 5.6, 25 6.37 M21.83 -0.36 C24.84 0.96, 26.95 7.96, 28.74 14.95 C30.53 21.94, 32.03 32.14, 32.57 41.57 C33.1 50.99, 33.62 63.24, 31.97 71.51 C30.31 79.78, 25.53 87.27, 22.64 91.19 C19.75 95.11, 17.77 96.94, 14.63 95.02 C11.49 93.1, 6.25 86.52, 3.81 79.66 C1.38 72.81, 0.43 63.04, 0 53.88 C-0.43 44.73, -0.57 33.22, 1.22 24.73 C3.02 16.24, 7.28 6.72, 10.75 2.97 C14.22 -0.78, 20.61 2.46, 22.03 2.22 C23.46 1.98, 19.67 1.13, 19.29 1.53" stroke="#1e1e1e" stroke-width="1" fill="none"></path></g><g stroke-linecap="round" transform="translate(70.82431166307492 53.366705720212565) rotate(137.52584359733294 16.005123968567432 39.44806273008794)"><path d="M10.51 1.19 C10.51 1.19, 10.51 1.19, 10.51 1.19 M10.51 1.19 C10.51 1.19, 10.51 1.19, 10.51 1.19 M6.3 11.85 C8.41 10.19, 10.84 8.21, 15.46 2.64 M5.59 13.39 C8.68 9.34, 12.16 4.37, 15.42 1.77 M2.23 21.38 C9.2 16.9, 9.55 12.74, 20.9 4.12 M4.38 21.33 C8.73 14.68, 15.01 7.9, 20.23 2.15 M3.71 26.87 C7.31 21.44, 13.85 16.58, 23.18 4.23 M2.71 28.5 C9.09 23.02, 13.38 16.34, 23.09 4.51 M1.87 32.39 C8.41 27.46, 13.57 20.72, 25.83 6.73 M3.84 33.68 C10.6 25.98, 18.47 16.83, 25.87 8.69 M3.65 39.95 C6.9 34.89, 15.85 25.52, 27.68 13.03 M2.6 40.75 C8.77 33.03, 14.48 26.72, 27.04 12.63 M2.8 46.08 C13.65 34.85, 22.42 24.15, 29.32 17.04 M1.97 46.23 C7.96 40.35, 13.58 32.97, 29.84 17.16 M4.22 50.31 C8.93 47.04, 15.02 37.88, 31.91 21.71 M3.06 51.98 C12.18 42.04, 20.53 31.94, 30.88 20.71 M4.03 58.72 C9.21 49.95, 18.4 43.98, 29.32 26.99 M4.98 57.02 C12.7 46.72, 21.45 37.84, 29.99 27.59 M3.73 61.64 C14.77 54.34, 22.69 45.24, 30.34 31.58 M4.77 61.46 C12.03 54.03, 16.74 47.5, 30.17 31.95 M7.06 64.9 C15.85 58.44, 21.52 50.26, 31.47 36.22 M5.97 66.02 C16.91 56.79, 25.93 45.2, 32.2 37.32 M9.52 72.37 C14.34 65.75, 20.02 60.55, 32.48 44.42 M7.87 70.81 C13.79 64.35, 21.22 55.65, 31.87 43.63 M9.76 74.15 C20.63 65.76, 26.96 55.47, 33.86 48.43 M10.73 73.79 C16.77 66.27, 23.69 59.64, 33.23 49.38 M13.29 75.9 C19.29 67.45, 27.15 62.2, 29.7 57.05 M13.17 76.28 C19.39 70.08, 26.07 61.11, 31.17 55.73 M15.82 78.56 C19.64 76.06, 24.32 68.66, 30.99 63.4 M17.21 79.03 C22.03 73.31, 26.97 68.99, 28.68 64.46" stroke="#868e96" stroke-width="0.5" fill="none"></path><path d="M22.03 2.79 C25.09 5.18, 27.91 12.4, 29.49 19.82 C31.08 27.24, 32 39.07, 31.54 47.31 C31.09 55.55, 29.28 64.01, 26.76 69.27 C24.24 74.54, 19.95 78.88, 16.4 78.9 C12.85 78.91, 8.08 74.91, 5.46 69.37 C2.84 63.82, 1.17 53.84, 0.68 45.65 C0.18 37.45, 0.92 27.53, 2.51 20.18 C4.1 12.83, 6.38 3.91, 10.21 1.53 C14.05 -0.85, 22.75 4.34, 25.5 5.91 C28.24 7.47, 26.93 10.37, 26.68 10.93 M20.62 -0.55 C23.72 0.72, 26.05 7.57, 27.72 14.23 C29.39 20.88, 30.59 30.88, 30.66 39.4 C30.73 47.92, 30.42 58.93, 28.14 65.34 C25.86 71.75, 20.2 76.57, 16.96 77.84 C13.72 79.11, 11.48 77.4, 8.69 72.96 C5.9 68.51, 1.51 59.08, 0.24 51.18 C-1.03 43.28, -0.12 33.18, 1.08 25.55 C2.28 17.91, 4.29 9.68, 7.44 5.37 C10.6 1.06, 17.78 0.14, 20 -0.29 C22.22 -0.72, 21.13 2.05, 20.77 2.81" stroke="#1e1e1e" stroke-width="1" fill="none"></path></g><g stroke-linecap="round" transform="translate(10 29.851050066662538) rotate(0 47.5 47.5)"><path d="M48.39 -0.51 C56.86 -0.79, 68.44 4.12, 75.48 9.21 C82.53 14.3, 87.4 22.29, 90.66 30.05 C93.91 37.8, 96.53 47.48, 95.01 55.74 C93.49 63.99, 87.43 73.39, 81.55 79.56 C75.68 85.74, 67.92 90.58, 59.76 92.78 C51.6 94.99, 40.81 95.22, 32.59 92.8 C24.37 90.39, 15.76 84.95, 10.45 78.3 C5.14 71.64, 1.49 61.37, 0.72 52.86 C-0.06 44.36, 2.2 34.96, 5.8 27.25 C9.4 19.53, 13.87 11.09, 22.33 6.58 C30.78 2.08, 49.84 0.85, 56.55 0.21 C63.26 -0.42, 62.98 1.75, 62.59 2.75 M29.01 2.49 C36.47 -0.79, 47.92 0.7, 56.43 2.28 C64.93 3.86, 73.85 6.17, 80.04 11.98 C86.23 17.79, 91.33 28.46, 93.57 37.15 C95.81 45.85, 96.24 56.37, 93.47 64.15 C90.7 71.92, 83.62 78.74, 76.94 83.79 C70.26 88.85, 62.13 93.49, 53.4 94.48 C44.67 95.48, 32.53 93.56, 24.54 89.74 C16.56 85.93, 9.46 79.14, 5.48 71.59 C1.5 64.04, 0.3 53.11, 0.66 44.43 C1.03 35.75, 2.59 26.3, 7.64 19.53 C12.69 12.76, 27.32 6.38, 30.96 3.79 C34.59 1.2, 29.49 3.1, 29.45 3.97" stroke="none" stroke-width="0" fill="#1e1e1e"></path><path d="M33.6 1.97 C41.08 -0.89, 52.17 0.49, 60.54 2.8 C68.91 5.11, 78.08 9.54, 83.81 15.84 C89.54 22.14, 93.81 32.11, 94.93 40.61 C96.05 49.12, 94.07 59.17, 90.53 66.88 C87 74.58, 80.82 82.06, 73.73 86.83 C66.63 91.61, 56.67 95.56, 47.97 95.54 C39.28 95.52, 28.68 91.43, 21.57 86.71 C14.47 81.99, 8.89 74.99, 5.34 67.23 C1.78 59.47, -0.85 48.62, 0.24 40.14 C1.33 31.67, 5.02 23.02, 11.89 16.39 C18.77 9.76, 35.58 2.78, 41.47 0.35 C47.37 -2.08, 47.39 1.11, 47.27 1.81 M32.72 1.91 C40.24 -1.17, 49.5 -1.43, 57.95 0.79 C66.41 3, 77.47 8.88, 83.42 15.18 C89.38 21.49, 92.39 30.05, 93.7 38.61 C95.01 47.18, 94.66 58.45, 91.31 66.56 C87.95 74.67, 80.46 82.73, 73.56 87.27 C66.65 91.81, 58.01 93.43, 49.88 93.81 C41.75 94.18, 32.45 93.78, 24.77 89.53 C17.1 85.28, 8 76.36, 3.85 68.32 C-0.3 60.28, -1.07 49.81, -0.14 41.29 C0.8 32.77, 3.88 23.55, 9.48 17.19 C15.07 10.83, 29.55 5.27, 33.42 3.13 C37.3 0.98, 32.38 3.43, 32.71 4.31" stroke="#1e1e1e" stroke-width="1" fill="none"></path></g><g transform="translate(37.390943518639006 56.563477960301555) rotate(0 20.021484375 20.700000000000003)"><text x="20.021484375" y="0" font-family="Helvetica, Segoe UI Emoji" font-size="36px" fill="#e9ecef" text-anchor="middle" style="white-space: pre;" direction="ltr" dominant-baseline="text-before-edge">50</text></g></svg>
